<svg xmlns="http://www.w3.org/2000/svg" width="29.667" height="32.139" viewBox="0 0 29.667 32.139">
  <g id="calendar" transform="translate(-24 -12)">
    <path id="Path_147" data-name="Path 147" d="M51.195,14.472H46.25V12H43.778v2.472H33.889V12H31.417v2.472H26.472A2.48,2.48,0,0,0,24,16.944V41.667a2.48,2.48,0,0,0,2.472,2.472H51.195a2.48,2.48,0,0,0,2.472-2.472V16.944A2.48,2.48,0,0,0,51.195,14.472Zm0,27.195H26.472V24.361H51.195Zm0-19.778H26.472V16.944h4.945v2.472h2.472V16.944h9.889v2.472H46.25V16.944h4.944Z" transform="translate(0 0)"/>
  </g>
</svg>
