<svg xmlns="http://www.w3.org/2000/svg" width="29.667" height="39.907" viewBox="0 0 29.667 39.907">
  <g id="location-pin" transform="translate(-30.403 -6.684)">
    <path id="Path_145" data-name="Path 145" d="M77.63,48.485a5.458,5.458,0,1,0,5.458,5.458A5.458,5.458,0,0,0,77.63,48.485Zm0,8.188a2.729,2.729,0,1,1,2.729-2.729,2.729,2.729,0,0,1-2.729,2.729Z" transform="translate(-32.393 -32.419)"/>
    <path id="Path_146" data-name="Path 146" d="M55.725,11.027A14.834,14.834,0,0,0,32.808,29.613L43.12,45.443a2.526,2.526,0,0,0,4.233,0L57.666,29.613a14.834,14.834,0,0,0-1.94-18.585Zm-.347,17.1L45.237,43.692,35.094,28.123a12.1,12.1,0,1,1,20.284,0Z" transform="translate(0 0)"/>
  </g>
</svg>
