<svg xmlns="http://www.w3.org/2000/svg" width="203.3" height="139.14" viewBox="0 0 203.3 139.14">
  <g id="logo" transform="translate(-3.17 -1.83)">
    <path id="Path_185" data-name="Path 185" d="M8.37,112.84a1.452,1.452,0,0,0-1.59-1.43c-.8,0-1.42.45-1.42,1.05a.862.862,0,0,0,.5.75q.28.15,1.61.67c1.68.69,1.9.8,2.31,1.23a2.486,2.486,0,0,1,.67,1.8c0,1.86-1.34,3.01-3.48,3.01-2.4,0-3.71-1.21-3.8-3.51H4.98a1.82,1.82,0,0,0,2,1.88c.92,0,1.55-.42,1.55-1.04a1.056,1.056,0,0,0-.67-.93q-.26-.15-1.68-.73a5.709,5.709,0,0,1-2-1.17,2.5,2.5,0,0,1-.69-1.77c0-1.68,1.37-2.86,3.33-2.86a3.341,3.341,0,0,1,2.82,1.3,3.03,3.03,0,0,1,.53,1.75H8.37Zm10.01-2.86v1.59H15.81v8.15H13.94v-8.15H11.37v-1.59Zm5.13,0,3.32,9.74H24.89l-.6-2.03H20.86l-.61,2.03H18.34l3.29-9.74h1.9Zm-.95,2.15-1.24,3.97h2.5Zm11.35,1.75v1.59H30.04v4.25H28.17v-9.74h6.12v1.59H30.04v2.31h3.87Zm7.6,0v1.59H37.64v4.25H35.77v-9.74h6.12v1.59H37.64v2.31h3.87Zm1.85,5.84v-9.74h1.87v9.74Zm6.24-9.74,3.94,6.87v-6.87h1.78v9.74H53.43l-4.06-6.87v6.87H47.59v-9.74h2Zm15.51,4.72v4.05a6,6,0,0,1-3.56,1.17c-2.78,0-4.5-1.94-4.5-5.05s1.72-5.07,4.35-5.07a3.569,3.569,0,0,1,2.88,1.26,3.272,3.272,0,0,1,.69,2.07H63.36a1.762,1.762,0,0,0-1.93-1.71c-1.53,0-2.44,1.29-2.44,3.46s.92,3.42,2.54,3.42a3.778,3.778,0,0,0,2.03-.64V116.1H61.62v-1.39h3.49Zm5.65,5.02v-9.74h1.87v9.74ZM77,109.98l3.94,6.87v-6.87h1.78v9.74H80.84l-4.06-6.87v6.87H75v-9.74Zm10.47,0a6.679,6.679,0,0,1,3.04.5,5.349,5.349,0,0,1,.23,8.65c-.85.48-1.52.6-3.56.6H85.09v-9.74h2.38Zm.35,8.15a3.128,3.128,0,0,0,2.05-.45,3.534,3.534,0,0,0,1.05-2.85,3.31,3.31,0,0,0-1.11-2.79c-.56-.39-.95-.47-2.44-.47h-.41v6.56Zm8.5-8.15v5.6a4.493,4.493,0,0,0,.16,1.62,1.778,1.778,0,0,0,1.83,1.1,1.742,1.742,0,0,0,1.89-1.29,5.157,5.157,0,0,0,.1-1.43v-5.6h1.87v5.62a4.885,4.885,0,0,1-.38,2.5,4.25,4.25,0,0,1-6.96,0,4.863,4.863,0,0,1-.38-2.5v-5.62h1.87Zm12.62,2.86a1.452,1.452,0,0,0-1.59-1.43c-.8,0-1.42.45-1.42,1.05a.862.862,0,0,0,.5.75q.28.15,1.61.67c1.68.69,1.9.8,2.31,1.23a2.486,2.486,0,0,1,.67,1.8c0,1.86-1.34,3.01-3.48,3.01-2.4,0-3.71-1.21-3.8-3.51h1.81a1.82,1.82,0,0,0,2,1.88c.92,0,1.55-.42,1.55-1.04a1.056,1.056,0,0,0-.67-.93q-.26-.15-1.68-.73a5.709,5.709,0,0,1-2-1.17,2.5,2.5,0,0,1-.69-1.77c0-1.68,1.37-2.86,3.33-2.86a3.354,3.354,0,0,1,2.82,1.3,3.03,3.03,0,0,1,.53,1.75h-1.8Zm9.8-2.86v1.59h-2.57v8.15H114.3v-8.15h-2.57v-1.59Zm3.78,0a5.806,5.806,0,0,1,3.05.47,2.988,2.988,0,0,1-.33,5.23l2.24,4.05H125.3L123.31,116h-1.34v3.73H120.1v-9.74h2.43Zm.12,4.43a4.331,4.331,0,0,0,1.59-.16,1.3,1.3,0,0,0,.82-1.29,1.247,1.247,0,0,0-.63-1.14c-.38-.22-.64-.25-1.91-.25h-.54v2.83h.67Zm7.02-4.43,2.05,3.89,2.02-3.89h2.06l-3.17,5.9v3.84h-1.87v-3.84l-3.17-5.9h2.09Zm15.17,0,3.32,9.74h-1.94l-.6-2.03h-3.43l-.61,2.03h-1.91l3.29-9.74h1.9Zm-.95,2.15-1.24,3.97h2.5Zm7.61-2.15,3.94,6.87v-6.87h1.78v9.74h-1.88l-4.06-6.87v6.87h-1.78v-9.74Zm12.25,0,3.32,9.74h-1.94l-.6-2.03h-3.43l-.61,2.03h-1.91l3.29-9.74h1.9Zm-.95,2.15-1.24,3.97h2.5Zm7.52-2.15v8.15h4.22v1.59h-6.14v-9.74h1.91Zm6.56,0,2.05,3.89,2.02-3.89H183l-3.17,5.9v3.84h-1.87v-3.84l-3.17-5.9h2.09Zm11.82,2.86a1.452,1.452,0,0,0-1.59-1.43c-.8,0-1.42.45-1.42,1.05a.862.862,0,0,0,.5.75q.28.15,1.61.67c1.68.69,1.9.8,2.31,1.23a2.486,2.486,0,0,1,.67,1.8c0,1.86-1.34,3.01-3.48,3.01-2.4,0-3.71-1.21-3.8-3.51h1.81a1.82,1.82,0,0,0,2,1.88c.92,0,1.55-.42,1.55-1.04a1.056,1.056,0,0,0-.67-.93q-.26-.15-1.68-.73a5.709,5.709,0,0,1-2-1.17,2.5,2.5,0,0,1-.69-1.77c0-1.68,1.37-2.86,3.33-2.86a3.341,3.341,0,0,1,2.82,1.3,3.031,3.031,0,0,1,.53,1.75h-1.8Zm9.8-2.86v1.59h-2.57v8.15h-1.87v-8.15h-2.57v-1.59h7.01Zm5.85,2.86a1.452,1.452,0,0,0-1.59-1.43c-.8,0-1.42.45-1.42,1.05a.862.862,0,0,0,.5.75q.28.15,1.61.67c1.68.69,1.9.8,2.31,1.23a2.486,2.486,0,0,1,.67,1.8c0,1.86-1.34,3.01-3.48,3.01-2.4,0-3.71-1.21-3.8-3.51h1.81a1.82,1.82,0,0,0,2,1.88c.92,0,1.55-.42,1.55-1.04a1.056,1.056,0,0,0-.67-.93q-.26-.15-1.68-.73a5.709,5.709,0,0,1-2-1.17,2.5,2.5,0,0,1-.69-1.77c0-1.68,1.37-2.86,3.33-2.86a3.341,3.341,0,0,1,2.82,1.3,3.031,3.031,0,0,1,.53,1.75h-1.8ZM83.07,3.64h17.85v46.5H83.07Zm0,64.35h17.85V96.65H83.07Zm86.69,28.66h18.53l-9.75-28.66H160.99Z" fill="#231f20"/>
    <path id="Path_186" data-name="Path 186" d="M100.92,50.14H63.61a29.092,29.092,0,0,1,2.62,2.44c3.83,3.83,6,9.18,6.34,15.41H116.8l6.02-17.85H100.91Zm38.71,0-5.46,17.85h72.3V50.14Z" fill="#ee3124"/>
    <path id="Path_187" data-name="Path 187" d="M156.64,3.64H138.51L107.14,96.65h18.27l22.17-72.5,7.95,25.99h16.94L156.64,3.64ZM72.58,67.99c-.34-6.22-2.52-11.58-6.34-15.41a26.631,26.631,0,0,0-2.62-2.44c-3-2.41-7.09-4.24-19.42-9.27q-12.69-5.02-15.34-6.42c-3.07-1.67-4.74-4.18-4.74-7.11,0-5.72,5.86-10.04,13.53-10.04,8.92,0,14.5,5.02,15.2,13.67H70c-.42-7.67-1.81-12.27-5.02-16.73C59.4,6.29,49.64,1.83,38.07,1.83c-18.69,0-31.8,11.29-31.8,27.33a23.713,23.713,0,0,0,6.55,16.87c3.35,3.63,8.65,6.69,19.1,11.16q13.53,5.58,16.04,6.97c4.32,2.37,6.41,5.3,6.41,8.92,0,5.86-6,9.9-14.78,9.9-11.57,0-17.99-6-19.1-17.99H3.2c.84,21.89,13.39,33.47,36.25,33.47,20.36,0,33.19-11.02,33.19-28.72,0-.59-.04-1.17-.07-1.74ZM40.72,131.93l3.04,8.88H42.59l-.74-2.24H38.56l-.74,2.24H36.65l3.04-8.88Zm-.51,1.42-1.34,4.24h2.68Zm13.9,1.16a1.86,1.86,0,0,0-1.94-1.7c-1.52,0-2.48,1.38-2.48,3.59s.96,3.58,2.49,3.58c1.19,0,1.9-.77,2.06-2.23h1.05c-.15,2.07-1.25,3.22-3.06,3.22-2.28,0-3.74-1.78-3.74-4.56a4.859,4.859,0,0,1,1.31-3.67,3.442,3.442,0,0,1,2.39-.93,2.878,2.878,0,0,1,2.37,1.07,2.957,2.957,0,0,1,.58,1.62H54.11Zm4.78-2.54a6.4,6.4,0,0,1,2.52.3,2.338,2.338,0,0,1,1.39,2.24,2.418,2.418,0,0,1-1.76,2.41l2.27,3.89H61.96l-2.15-3.7H58.34v3.7H57.21v-8.84h1.68Zm.07,4.17a4.609,4.609,0,0,0,1.71-.17,1.432,1.432,0,0,0,.94-1.46,1.372,1.372,0,0,0-.78-1.34,4.058,4.058,0,0,0-1.91-.21h-.58v3.18h.62Zm9.21-4.21,3.04,8.88H70.04l-.74-2.24H66.01l-.74,2.24H64.1l3.04-8.88Zm-.52,1.42-1.34,4.24h2.68l-1.34-4.24Zm5.18,7.47v-8.84h1.15v8.84Zm4.88-8.85,4.12,7.13v-7.13h1.06v8.84H81.68l-4.12-7.12v7.12H76.49v-8.84Zm15.97,3.78v.98H90.1v4.08H88.97v-8.84h5v.98H90.1v2.8Zm4.76-3.82,3.04,8.88h-1.17l-.74-2.24H96.28l-.74,2.24H94.37l3.04-8.88h1.03Zm-.52,1.42-1.34,4.24h2.68l-1.34-4.24Zm6.87-1.38,2.37,7.61,2.37-7.61h1.67v8.84h-1.06v-7.65l-2.41,7.65h-1.15l-2.4-7.65v7.65h-1.06v-8.84Zm8.9,8.85v-8.84h1.15v8.84Zm4.83-8.85v7.86h3.79v.98h-4.96v-8.84Zm4.82,0,2.05,4.02,2.04-4.02h1.27l-2.77,5.17v3.67h-1.11v-3.67l-2.79-5.17h1.3Zm12.24,0a6.586,6.586,0,0,1,2.15.21,2.012,2.012,0,0,1,1.37,2,1.834,1.834,0,0,1-1.47,1.91,2.138,2.138,0,0,1,1.94,2.24,2.277,2.277,0,0,1-1.51,2.25,7.676,7.676,0,0,1-2.59.23h-1.64v-8.84h1.76Zm.15,3.77a3.331,3.331,0,0,0,1.58-.25,1.311,1.311,0,0,0,.64-1.21,1.207,1.207,0,0,0-.74-1.19,4.207,4.207,0,0,0-1.52-.16h-.76v2.81h.81Zm.06,4.12a4.645,4.645,0,0,0,1.84-.21,1.625,1.625,0,0,0-.21-2.83,4.6,4.6,0,0,0-1.62-.16h-.88v3.2h.86Zm7.35-7.89a6.4,6.4,0,0,1,2.52.3,2.338,2.338,0,0,1,1.39,2.24,2.418,2.418,0,0,1-1.76,2.41l2.27,3.89h-1.35l-2.15-3.7h-1.47v3.7h-1.13v-8.84h1.68Zm.07,4.17a4.609,4.609,0,0,0,1.71-.17,1.432,1.432,0,0,0,.94-1.46,1.372,1.372,0,0,0-.78-1.34,4.058,4.058,0,0,0-1.91-.21h-.58v3.18h.62Zm9.21-4.21,3.04,8.88h-1.17l-.74-2.24h-3.29l-.74,2.24h-1.17l3.04-8.88h1.03Zm-.52,1.42-1.34,4.24h2.68Zm6.42-1.38,4.12,7.13v-7.13h1.06v8.84h-1.21l-4.12-7.12v7.12H157.1v-8.84h1.22Zm9.22,0a5.881,5.881,0,0,1,3.02.49,4.812,4.812,0,0,1-.01,7.86c-.74.4-1.33.49-3.16.49H166v-8.84h1.54Zm.27,7.87a3.629,3.629,0,0,0,2.29-.44,3.4,3.4,0,0,0,1.3-3.01,3.356,3.356,0,0,0-1.43-3.06c-.57-.32-.89-.37-2.44-.37h-.4v6.88h.68Z" fill="#231f20"/>
  </g>
</svg>
