<svg id="Layer_1" data-name="Layer 1" xmlns="http://www.w3.org/2000/svg" viewBox="0 0 540 163.79"><defs><style>.cls-1{fill:#9f709e;}.cls-2{fill:#5eb3e4;}.cls-3{fill:#9f9e9f;}.cls-4{fill:#ff9e18;}.cls-5{fill:#b3cd4a;}.cls-6{fill:#a2d45e;}.cls-7{fill:#fff;}</style></defs><title>NJSA-logo-white-text</title><circle class="cls-1" cx="143.99" cy="73.77" r="12.14"/><path class="cls-1" d="M139.81,87.78a61.06,61.06,0,0,1-2.07,25.6l-11.22-3.63a49.11,49.11,0,0,0,1.87-10.14L114.13,98.5a34.86,34.86,0,0,0-8.25-25.4l10.88-9.28a49.66,49.66,0,0,0-7.47-7.1l6.91-9.55a60.9,60.9,0,0,1,16.56,19.14,14.66,14.66,0,0,0,4.58,20.22A15.47,15.47,0,0,0,139.81,87.78Z" transform="translate(-1.16 -0.35)"/><circle class="cls-2" cx="119.09" cy="151.37" r="12.14"/><path class="cls-3" d="M114.1,45.64l-6.91,9.54a49.38,49.38,0,0,0-9.08-4.9L92.65,63.49a34.87,34.87,0,0,0-26.69,0L60.48,50.28a49.86,49.86,0,0,0-9.06,4.9l-6.94-9.52a60.84,60.84,0,0,1,23.31-9.83,14.67,14.67,0,0,0,20.66,1.89,15.62,15.62,0,0,0,1.94-2A60.74,60.74,0,0,1,114.1,45.64Z" transform="translate(-1.16 -0.35)"/><path class="cls-3" d="M79.06,14.32A12.14,12.14,0,1,1,66.92,26.45,12.14,12.14,0,0,1,79.06,14.32Z" transform="translate(-1.16 -0.35)"/><path class="cls-2" d="M105.62,150.85a61.05,61.05,0,0,1-25,5.94l0-11.78a49.14,49.14,0,0,0,10.23-1.35l-3.35-13.9a35,35,0,0,0,21.61-15.71l12.19,7.49a49.63,49.63,0,0,0,4.43-9.31h0L137,115.86a61.31,61.31,0,0,1-13.11,21.65A14.64,14.64,0,0,0,106,148.12,12.61,12.61,0,0,0,105.62,150.85Z" transform="translate(-1.16 -0.35)"/><path class="cls-4" d="M78,145l0,11.78A60.73,60.73,0,0,1,53.38,151a14.68,14.68,0,0,0-15.6-13.66,14.85,14.85,0,0,0-2.72.45,60.79,60.79,0,0,1-13.39-21.93l11.21-3.66a49.72,49.72,0,0,0,4.45,9.31l12.19-7.49a35,35,0,0,0,21.6,15.71l-3.34,13.9A48.78,48.78,0,0,0,78,145Z" transform="translate(-1.16 -0.35)"/><path class="cls-5" d="M41.85,63.82,52.73,73.1a35,35,0,0,0-8.27,25.4L30.2,99.61a49.82,49.82,0,0,0,1.89,10.14l-11.23,3.66A60.7,60.7,0,0,1,18.75,88.2,14.66,14.66,0,0,0,26.9,69.14a14.18,14.18,0,0,0-1.26-2.45A61.3,61.3,0,0,1,42.36,47.18l0,0,6.94,9.52A47.37,47.37,0,0,0,41.85,63.82Z" transform="translate(-1.16 -0.35)"/><circle class="cls-4" cx="38.75" cy="152" r="12.14" transform="translate(-118.42 167.96) rotate(-81.67)"/><path class="cls-5" d="M25.44,74.58A12.14,12.14,0,1,1,13.3,62.44,12.13,12.13,0,0,1,25.44,74.58Z" transform="translate(-1.16 -0.35)"/><polygon class="cls-6" points="289.23 103.99 289.17 103.99 289.17 103.94 289.44 103.67 289.71 103.34 289.82 103.34 290.31 103.08 291.39 102.53 290.9 102.16 291.39 101.83 291.5 101.78 291.66 101.67 291.77 101.61 292.15 101.29 292.58 100.97 292.74 100.8 292.96 100.64 293.12 100.48 293.34 100.32 293.93 99.78 293.99 99.67 294.2 99.56 294.31 99.51 294.47 99.4 294.58 99.34 294.63 99.29 294.69 99.29 295.23 99.13 295.61 99.07 295.82 99.07 295.88 99.07 295.93 99.07 296.26 99.02 296.69 99.07 296.8 99.13 297.12 99.13 297.34 99.13 297.39 99.13 298.15 99.13 298.2 99.13 298.26 99.13 298.96 98.97 299.66 98.8 300.04 98.64 300.37 98.53 300.8 98.37 301.34 98.05 301.82 97.56 302.1 97.34 302.1 97.29 302.42 97.07 302.64 97.02 302.69 97.02 303.12 96.96 304.37 96.96 304.64 96.86 304.8 96.75 304.91 96.58 305.12 96.26 305.23 96.1 305.39 95.83 305.45 95.5 305.45 95.34 305.5 95.07 305.5 94.91 305.45 94.8 305.39 94.69 305.34 94.58 305.29 94.42 305.18 94.15 305.18 94.04 305.18 93.88 305.12 93.67 305.12 93.61 305.12 93.18 305.12 92.96 305.12 92.85 305.12 92.75 305.18 92.69 305.18 92.64 305.18 92.58 305.23 92.37 305.29 92.26 305.45 91.99 305.45 91.93 305.5 91.93 305.61 91.83 305.66 91.77 305.72 91.72 305.99 91.56 306.31 91.34 306.53 91.23 307.29 90.96 307.56 90.91 308.37 90.53 308.53 90.37 308.64 90.26 308.69 90.2 308.96 89.88 309.07 89.77 309.39 89.07 309.45 88.96 309.67 88.69 309.88 88.53 309.99 88.47 310.04 88.42 310.1 88.42 310.53 88.26 310.58 88.26 311.02 88.09 311.23 87.99 311.29 87.99 311.34 87.99 311.39 87.93 311.5 87.88 311.67 87.77 311.94 87.5 312.58 86.85 312.69 86.69 312.75 86.64 312.85 86.47 312.96 86.36 313.34 86.09 313.72 85.82 313.99 85.72 314.75 85.23 314.86 85.17 315.39 84.85 315.5 84.8 315.72 84.74 315.83 84.69 315.88 84.69 315.88 84.63 316.04 84.63 316.53 84.74 316.64 84.69 316.96 84.58 317.18 84.53 317.72 84.36 318.1 84.15 318.69 83.98 318.96 83.93 319.07 83.82 319.13 83.77 319.23 83.5 319.34 83.34 319.45 83.23 319.56 83.12 319.61 83.06 319.72 83.01 319.77 83.01 319.83 82.96 319.99 82.9 320.26 82.69 320.42 82.53 320.48 82.31 320.53 81.98 320.64 81.71 320.64 81.66 320.69 81.55 320.75 81.44 320.86 81.17 321.07 81.01 321.23 80.96 321.34 80.96 321.56 81.01 321.67 81.06 321.94 81.17 322.15 81.28 322.64 81.39 322.75 81.44 322.86 81.44 322.91 81.44 323.07 81.39 323.4 81.12 323.72 80.85 324.05 80.63 324.26 80.52 324.37 80.52 324.42 80.47 324.48 80.47 324.91 80.52 325.07 80.52 325.18 80.47 325.94 79.77 325.99 79.66 326.1 79.5 326.15 79.23 326.15 78.95 326.1 78.79 325.56 77.87 325.34 77.66 325.02 77.44 324.64 77.28 324.59 77.28 324.48 77.17 324.42 77.06 324.37 76.9 324.21 76.36 324.21 76.31 324.21 76.25 323.99 75.93 323.88 75.66 323.83 75.55 323.72 75.22 323.67 75.22 323.67 75.17 323.34 74.95 323.34 74.9 323.29 74.9 323.18 74.79 323.13 74.79 323.07 74.68 323.02 74.63 322.91 74.63 322.86 74.52 322.75 74.47 322.42 74.25 322.15 74.09 321.23 73.66 321.02 73.44 320.91 73.39 320.37 73.11 320.1 72.84 319.88 72.3 319.56 71.6 319.4 71.06 319.18 70.63 318.96 70.19 318.8 69.92 318.15 69.22 318.05 69.11 317.88 68.95 317.83 68.9 317.61 68.73 317.4 68.57 317.13 68.57 317.02 68.57 316.75 68.46 316.31 68.09 315.88 67.65 315.83 67.65 315.5 67.38 315.18 67.06 315.02 66.84 315.02 66.79 314.91 66.46 314.91 66.3 314.91 65.92 314.91 65.81 314.75 65.33 314.58 64.73 314.53 64.57 314.48 64.52 314.31 64.08 313.99 63.27 313.94 63.16 313.83 63.11 313.72 63 313.23 62.79 313.13 62.73 313.07 62.73 313.07 62.68 312.96 62.62 312.91 62.57 312.85 62.57 312.85 62.52 312.75 62.41 312.37 62.3 312.26 62.3 312.04 62.46 311.34 62.68 310.96 62.73 310.91 62.73 310.8 62.73 310.75 62.73 310.69 62.68 310.53 62.62 310.37 62.52 310.31 62.46 310.1 62.3 310.04 62.19 309.99 62.19 309.94 62.14 309.83 62.03 309.72 62.03 309.45 61.92 309.39 61.92 309.34 61.87 309.29 61.81 309.23 61.76 309.18 61.65 309.18 61.6 309.12 61.54 309.12 61.43 309.02 60.73 308.8 59.76 308.64 59.33 308.64 59.27 308.75 58.89 308.8 58.78 308.85 58.68 308.8 58.68 308.8 58.46 308.8 58.13 308.96 57.92 309.07 57.59 309.12 57.27 309.07 56.95 309.07 56.78 308.96 56.08 308.91 55.65 308.91 55.22 308.91 55.11 308.96 54.67 308.91 53.97 308.85 53.76 308.8 53.59 308.31 53.21 308.04 52.84 307.88 52.67 307.45 52.13 307.23 51.92 307.18 51.86 306.69 51.7 306.37 51.54 306.1 51.48 305.39 51.38 305.34 51.38 305.23 51.38 305.12 51.38 305.07 51.43 304.96 51.48 304.85 51.54 304.8 51.59 304.75 51.65 304.31 52.02 304.26 52.02 304.1 52.13 303.88 52.13 303.77 52.13 303.66 52.08 303.5 52.08 303.45 52.08 303.39 52.02 303.12 51.92 303.07 51.92 303.01 51.86 302.96 51.81 302.85 51.75 302.74 51.65 302.58 51.43 302.53 51.32 302.47 51.16 302.47 51.1 302.47 50.94 302.53 50.89 302.64 50.67 302.69 50.62 302.69 50.4 302.74 50.4 302.69 50.35 302.69 50.29 302.69 50.24 302.69 50.19 302.64 49.59 302.42 49.32 302.42 49.16 302.31 49 302.15 48.78 302.15 48.62 302.2 48.56 302.37 48.45 302.69 48.45 302.8 48.35 302.8 48.29 302.8 48.13 302.74 47.48 302.69 47.27 302.64 47.05 302.58 46.99 302.58 46.94 302.2 46.67 302.26 46.51 302.42 46.13 302.69 45.75 302.74 45.7 302.85 45.53 303.12 45.43 303.18 45.32 303.23 45.26 303.23 45.21 303.29 45.1 303.39 44.99 303.45 44.78 303.39 44.67 303.39 44.62 303.34 44.62 303.29 44.56 303.23 44.56 303.23 44.51 303.18 44.51 303.12 44.51 303.07 44.51 302.8 44.51 302.74 44.51 302.42 44.4 302.2 44.13 302.2 44.07 302.2 44.02 302.15 43.97 302.15 43.86 302.1 43.7 302.15 43.53 302.15 43.48 302.26 43.1 302.37 42.83 302.37 42.72 302.47 42.45 302.58 42.24 302.64 42.18 302.64 42.13 302.8 41.97 302.96 41.59 303.01 41.59 303.01 41.53 303.01 41.48 303.18 41.21 303.18 41.1 303.18 40.94 303.07 40.78 303.01 40.78 303.01 40.72 302.96 40.67 302.8 40.51 302.53 40.18 302.47 40.07 302.47 39.86 302.47 39.75 302.53 39.69 302.74 39.48 303.18 39.26 303.34 39.1 303.45 38.94 303.5 38.67 303.56 38.4 303.61 38.23 303.66 38.18 303.72 38.13 303.72 38.07 303.83 38.02 304.04 38.02 304.15 38.02 304.31 38.07 304.85 38.29 305.34 38.34 305.61 38.34 305.66 38.29 305.77 38.18 305.93 37.91 306.04 37.64 306.15 37.48 306.37 37.37 306.42 37.37 306.48 37.31 306.53 37.31 306.75 37.26 306.8 37.26 306.91 37.21 307.29 36.61 307.34 36.56 307.34 36.4 307.29 36.23 307.34 36.13 307.45 35.96 307.56 35.8 307.83 35.58 308.1 35.15 308.15 35.04 308.15 34.99 308.15 34.83 308.15 34.77 308.1 34.72 308.1 34.66 307.99 34.56 307.61 34.18 307.5 34.02 307.45 33.91 307.45 33.8 307.5 33.69 307.56 33.53 307.83 33.37 308.53 33.37 308.69 33.42 308.8 33.53 309.07 33.48 309.12 33.48 309.34 33.15 309.67 32.72 309.72 32.72 309.72 32.56 309.77 32.39 309.83 32.34 309.83 32.18 309.77 32.02 309.77 31.91 309.67 31.8 309.45 31.53 309.29 31.2 309.18 31.09 309.12 30.99 308.69 30.55 308.58 30.45 308.58 30.34 308.64 30.01 308.58 29.58 308.53 29.42 308.53 29.31 308.42 29.2 308.42 29.15 308.04 28.82 307.94 28.72 307.61 28.45 307.5 28.28 307.39 28.07 307.12 27.63 307.07 27.42 306.8 26.88 306.53 26.55 306.48 26.34 306.42 25.96 306.42 25.9 306.37 25.8 306.42 25.63 306.37 25.52 306.37 25.47 306.26 25.42 305.93 25.47 305.83 25.47 305.72 25.36 305.66 25.15 305.66 24.98 305.77 24.77 305.83 24.61 305.83 24.44 305.83 24.17 305.88 24.07 305.88 24.01 305.99 23.96 306.04 23.9 306.04 23.85 306.26 23.69 306.91 23.31 306.96 23.2 307.39 23.04 307.45 22.98 307.61 22.88 307.66 22.88 307.77 22.71 307.88 22.66 307.94 22.61 307.94 22.5 308.37 22.34 308.69 22.34 308.91 22.23 310.2 21.47 310.42 21.36 310.69 21.04 310.91 20.93 311.12 20.88 311.18 20.82 311.12 20.55 311.12 20.44 311.45 20.01 311.56 19.85 311.67 19.63 311.67 19.47 311.83 19.14 311.88 19.04 312.1 19.04 312.48 18.6 312.69 18.44 312.96 18.33 313.29 18.28 313.88 17.9 313.99 17.74 314.1 17.36 314.1 17.3 314.1 17.25 314.04 17.2 313.99 17.2 313.83 17.2 313.67 17.3 313.39 17.58 313.23 17.63 313.18 17.68 313.02 17.68 312.91 17.68 312.85 17.63 312.85 17.41 313.34 16.39 313.45 16.22 313.77 16.06 313.99 16.01 314.15 16.01 314.21 15.95 315.07 15.36 315.07 15.3 315.07 15.2 315.18 15.03 315.88 14.71 316.26 14.44 317.18 13.25 317.34 12.87 317.4 12.71 317.45 12.6 317.99 12.11 318.31 11.63 318.53 11.19 318.53 10.98 318.75 10.44 318.86 10.28 318.86 10.17 319.07 9.79 319.45 9.19 319.45 9.09 319.5 9.03 319.4 8.87 319.13 8.6 319.07 8.54 319.13 8.22 319.34 7.9 319.4 7.63 319.61 7.14 319.67 7.08 319.72 7.03 319.99 6.98 320.1 6.87 320.15 6.76 320.21 6.54 320.15 6.33 320.15 6.27 320.15 6.22 320.42 5.68 320.48 5.46 320.53 5.35 320.53 5.3 320.64 5.14 320.75 5.03 320.96 4.65 321.34 4.16 321.67 4.06 321.83 3.89 322.1 3.57 322.8 3.08 322.86 3.03 322.8 2.87 322.69 2.6 322.64 2.6 322.69 2.43 322.86 2.33 322.91 2.27 323.02 2.27 323.07 2.22 323.29 2.22 323.34 2.22 323.56 2.22 323.72 2.22 323.72 2.16 323.77 2.16 323.83 2.16 323.88 2.16 323.94 2.11 324.1 1.89 324.15 1.84 324.21 1.78 324.26 1.73 324.26 1.62 324.37 1.41 324.42 1.19 324.42 1.14 324.64 0.81 324.75 0.81 324.8 0.76 324.91 0.76 325.67 0.76 325.88 0.76 326.37 0.7 327.02 0.33 327.18 0.27 327.4 0.22 327.67 0 327.72 0.05 327.78 0.11 328.15 0.33 328.69 0.65 329.29 1.03 329.94 1.41 330.32 1.62 331.99 2.65 333.67 3.68 334.26 4.06 334.32 4.06 334.37 4.11 334.53 4.22 335.51 4.81 336.05 5.19 337.35 5.95 338.48 6.65 338.75 6.81 338.91 6.92 339.45 7.25 340.32 7.79 340.81 8.17 341.08 8.33 341.18 8.38 341.24 8.44 341.29 8.44 341.56 8.65 341.62 8.65 343.13 9.68 343.24 9.73 343.35 9.79 343.56 9.95 343.78 10.06 344 10.17 344.54 10.49 344.86 10.71 345.08 10.87 345.18 10.92 345.83 11.3 346.21 11.52 346.21 11.57 347.19 12.17 348.27 12.82 350.1 13.9 350.54 14.12 350.59 14.17 351.62 14.71 351.89 14.87 352.54 15.2 353.13 15.52 354.11 16.12 354.16 16.12 354.27 16.17 354.32 16.22 354.75 16.44 354.75 16.49 354.86 16.55 354.92 16.55 355.13 16.71 355.78 17.04 355.89 17.09 355.89 17.14 356.11 17.25 356.21 17.3 356.27 17.36 356.65 17.58 356.92 17.74 357.08 17.79 357.35 17.95 357.4 18.01 357.62 18.12 358.16 18.44 358.27 18.5 358.65 18.71 358.86 18.82 359.3 19.09 359.4 19.14 359.51 19.25 359.62 19.31 359.67 19.31 360.21 19.63 360.38 19.74 360.43 19.74 360.59 19.85 360.97 20.06 361.02 20.12 361.57 20.44 361.62 20.44 362.27 20.82 362.54 20.98 363.4 21.47 363.89 21.79 364.27 22.01 364.59 22.17 364.65 22.23 364.97 22.39 365.3 22.61 366.16 23.09 366.27 23.15 366.65 23.36 366.86 23.58 366.97 23.63 367.13 23.63 367.57 23.63 367.4 24.66 367.3 25.09 367.03 26.23 366.92 26.66 366.76 27.31 366.65 27.69 366.49 28.39 366.38 28.77 366.38 28.88 366.32 29.09 366.27 29.15 365.94 30.34 365.84 30.72 365.62 31.2 365.4 31.69 364.92 32.77 364.7 33.26 364.59 33.48 364.16 34.88 364.05 35.1 363.94 35.26 363.89 35.26 363.46 36.07 363.24 36.5 363.08 36.83 362.75 37.42 362.7 37.53 362.59 37.8 362.43 38.07 362.32 38.23 362.27 38.34 361.89 39.05 361.73 39.37 361.67 39.53 361.46 40.61 361.4 40.99 361.35 41.26 361.3 41.32 361.3 41.42 361.3 41.53 361.3 41.59 361.24 41.7 361.24 41.91 361.19 42.18 361.19 42.24 361.19 42.34 361.13 42.61 360.43 42.56 360.38 42.61 360.32 42.67 360.21 42.83 360.21 42.88 359.78 43.53 359.56 43.7 359.46 43.8 358.97 44.18 358.86 44.29 358.81 44.34 358.65 44.51 358.27 44.94 358.21 44.99 358.16 45.16 358 45.53 357.89 45.91 358 46.29 357.67 46.56 356.97 46.72 356.75 46.78 356.38 46.83 356.11 46.89 355.67 46.99 355.24 47.1 355.19 47.1 354.32 46.94 353.29 46.78 353.08 46.83 352.97 46.89 352.97 46.94 352.92 46.99 352.81 47.1 352.54 47.43 352.32 47.7 352.27 47.81 352.21 48.4 352.16 48.78 352.11 49.43 352.05 50.19 352 50.62 352 50.73 351.94 51.38 351.94 51.43 351.78 51.97 351.62 52.46 351.46 52.67 350.92 52.56 350.81 52.56 349.94 53.16 349.83 53.65 349.83 53.81 350 54.57 350.05 55.05 349.78 55.43 349.51 55.81 349.4 55.92 349.24 56.13 349.19 56.19 349.08 56.35 349.02 56.4 348.97 56.51 348.86 56.78 348.75 57.22 348.81 57.38 348.81 57.49 348.92 57.81 349.02 58.3 349.02 58.35 349.29 58.78 349.51 58.84 349.62 58.89 350.59 59.22 351.24 59.59 351.94 59.92 351.94 60.03 352.11 60.35 352.11 60.46 352 60.57 352.05 60.68 352.32 60.46 352.64 60.35 352.7 60.3 352.86 60.19 353.02 59.92 353.67 59.38 353.67 59.43 353.67 59.76 353.56 59.87 353.67 59.97 353.94 59.7 354.05 59.81 354.11 59.92 354.21 59.81 354.27 59.81 354.54 59.92 354.75 59.87 354.81 59.92 354.81 59.87 355.02 59.76 355.29 59.7 355.46 59.49 355.51 59.43 355.62 59.38 355.67 59.38 355.73 59.43 355.89 59.49 356 59.59 356.05 59.65 356.21 59.76 356.32 59.81 356.59 59.97 357.3 60.19 357.83 60.41 357.89 60.41 358.05 60.46 358.38 60.62 358.65 60.78 359.08 61.16 359.19 61.22 359.4 61.38 359.4 61.43 359.46 61.43 359.51 61.49 359.73 61.6 359.78 61.6 360.05 61.76 360.65 61.87 362.16 62.24 362.38 62.24 362.54 62.24 362.7 61.7 362.81 60.89 362.86 60.14 362.75 59.87 362.16 58.73 362.05 58.68 361.57 58.24 361.57 58.08 361.73 57.97 362.11 58.03 362.27 58.19 362.65 58.46 363.57 60.3 363.62 62.41 363.73 63 363.84 63.92 363.94 64.84 363.94 65.49 363.94 66.41 363.94 66.52 363.89 66.95 363.84 67.44 363.78 68.09 363.73 68.63 363.73 68.68 363.67 69.06 363.67 69.44 363.67 69.6 363.62 69.92 363.51 70.47 363.46 70.9 363.4 71.11 363.3 71.49 363.3 71.71 363.19 72.14 362.86 73.66 362.81 73.93 362.75 74.14 362.75 74.25 362.65 74.52 362.65 74.68 362.59 74.74 362.59 74.95 362.54 75.01 362.43 75.55 362.43 75.6 362.32 75.93 362.32 76.09 362.27 76.25 362.21 76.41 362.16 76.68 362.11 76.95 362.05 77.06 362 77.33 361.94 77.55 361.94 77.66 361.89 77.82 361.78 78.31 361.51 79.28 361.3 80.2 361.19 80.58 361.08 81.23 361.02 81.55 360.86 82.53 360.97 82.63 361.02 82.69 360.92 82.74 360.81 83.17 360.65 83.66 360.65 83.82 360.59 83.93 360.54 84.31 360.32 85.5 359.94 87.55 359.73 88.91 359.67 89.23 359.51 90.1 359.4 90.58 359.4 90.69 359.4 90.75 359.3 91.18 359.3 91.34 359.19 91.99 359.19 92.26 359.08 92.69 359.02 93.29 358.97 93.45 358.97 93.67 358.86 94.26 358.86 94.48 358.75 95.02 358.75 95.18 358.7 95.61 358.7 95.83 358.54 97.56 358.43 98.53 358.43 98.75 358.11 102.48 357.78 104.59 357.78 104.64 357.78 104.81 357.78 104.91 357.67 105.13 357.56 105.35 357.19 106 357.02 106.27 356.97 106.37 356.92 106.48 356.38 107.78 356.16 108.38 355.62 109.56 355.56 109.73 355.56 109.78 355.51 109.83 355.35 110.05 354.75 111.08 354.11 112.27 354 112.38 353.46 113.35 353.08 114 352.32 115.41 351.94 116.05 351.83 116.22 351.78 116.38 351.08 117.68 350.59 118.49 350.59 118.54 350.54 118.65 350.48 118.7 350.38 118.81 350.16 119.03 350.1 119.08 350.05 119.14 349.46 120.11 348.7 121.35 348 121.73 347.94 121.73 347.73 121.79 346.97 121.84 346.91 122.27 346.86 122.54 346.81 122.65 347.08 123.3 347.29 123.35 347.4 123.63 347.29 124.11 346.21 126 345.78 126.71 344.81 127.9 344.37 128.44 344.21 128.6 344.1 128.71 344.1 128.76 344.05 128.76 343.78 128.98 343.67 129.03 343.29 129.36 343.02 129.57 342.86 129.74 342.7 129.84 342.1 130.33 342.1 130.55 342.05 130.76 342.05 130.82 342.05 130.93 342 131.14 341.83 131.36 341.78 131.41 341.72 131.47 341.51 131.52 341.24 131.63 340.86 131.84 340.81 131.84 340.37 132.01 340.16 132.12 340.05 132.17 339.99 132.22 339.78 132.28 339.62 132.39 339.56 132.39 339.4 132.44 339.35 132.49 339.18 132.6 338.91 132.76 338.59 132.98 338.54 133.03 338.32 133.14 338.26 133.2 338.1 133.31 337.83 133.47 337.67 133.57 337.62 133.63 337.51 133.68 337.29 133.79 337.24 133.85 337.18 133.9 337.02 134.01 336.91 134.06 336.86 134.06 336.75 134.17 336.53 134.33 336.21 134.49 335.24 135.41 334.7 135.85 334.64 136.06 334.59 136.28 334.53 136.44 334.43 136.5 334.37 136.6 334.26 136.71 334.26 136.77 334.21 136.82 334.1 136.87 333.99 136.93 333.88 136.98 333.72 137.09 333.4 137.25 333.24 137.31 333.18 137.36 333.07 137.47 332.91 137.58 332.86 137.63 332.75 137.74 332.32 138.12 332.26 138.23 331.78 138.71 331.51 139.04 331.45 139.04 331.45 139.09 331.24 139.42 330.59 140.34 330.37 140.61 329.83 141.2 329.83 141.31 329.78 141.47 329.56 142.12 329.51 142.17 328.64 143.2 328.64 143.25 328.53 143.31 328.48 143.53 327.61 144.99 327.61 145.04 327.45 145.31 327.07 145.96 326.96 146.23 326.8 146.45 326.69 146.61 326.59 146.88 326.37 147.26 326.32 147.47 326.37 147.64 326.86 148.07 326.8 148.39 326.48 148.72 326.42 148.77 326.37 148.82 325.88 149.42 325.13 150.23 324.64 151.04 324.21 151.69 323.02 153.64 322.64 155.1 322.64 155.15 322.32 155.69 321.83 155.91 321.77 155.91 321.5 156.07 321.4 156.18 320.96 156.5 320.8 156.67 320.53 156.88 320.42 156.99 319.5 157.91 319.34 158.13 318.58 159.05 318.58 158.99 318.37 158.88 318.31 158.83 317.72 158.94 317.67 158.94 317.45 159.05 317.29 159.16 316.42 159.59 316.26 159.64 315.99 159.7 315.77 159.75 315.72 159.8 315.67 159.8 315.45 159.8 315.07 159.8 313.72 159.64 313.5 159.64 313.34 159.48 313.07 159.05 313.45 157.26 313.5 157.21 313.5 157.15 313.72 156.18 313.72 156.02 313.83 155.53 313.88 155.37 313.88 155.31 313.94 155.04 314.1 154.67 314.1 154.56 314.26 154.13 314.26 154.07 314.42 153.69 314.48 153.64 314.58 153.37 314.69 153.1 314.86 152.83 314.86 152.77 314.96 152.61 314.96 152.56 315.02 152.5 315.39 151.8 315.5 151.53 315.83 150.88 316.37 149.85 316.53 149.53 316.64 149.37 316.8 149.04 316.96 148.61 317.07 148.18 317.23 147.69 317.23 147.64 317.23 147.58 317.56 145.69 317.5 144.72 317.5 144.66 317.45 144.61 317.29 144.39 317.23 144.39 316.58 143.63 316.42 143.58 316.1 143.42 315.02 143.04 313.77 142.61 313.67 142.61 313.5 142.55 313.18 142.5 312.96 142.44 312.91 142.44 312.37 142.5 311.83 142.5 311.18 142.44 310.42 142.34 310.26 142.28 310.31 141.96 310.53 141.74 310.53 141.63 310.42 141.36 310.42 141.31 310.42 141.25 310.2 141.15 309.94 140.93 309.61 140.88 309.45 141.04 309.29 141.15 309.07 141.04 308.53 141.04 307.34 141.36 306.8 141.2 306.58 141.15 306.26 141.15 306.2 141.2 306.1 141.25 305.88 141.42 305.45 142.12 305.23 142.55 304.75 143.25 304.64 143.2 304.15 142.72 303.66 142.23 303.23 141.74 303.29 141.25 303.34 140.77 303.01 139.58 302.69 139.04 301.23 137.74 300.91 137.74 300.47 137.52 300.31 137.41 299.72 137.14 299.45 136.98 299.39 136.98 299.28 136.71 299.34 136.55 299.34 136.33 299.28 136.22 298.91 135.31 298.91 135.25 298.8 135.25 298.37 135.14 298.1 135.04 297.88 134.98 297.39 135.31 297.34 135.31 297.18 135.74 297.01 135.96 296.85 135.79 296.15 135.14 295.66 134.55 295.34 133.68 295.12 133.09 295.07 132.71 295.07 132.66 294.96 132.55 294.74 132.22 294.31 132.01 293.66 132.06 293.5 132.17 293.34 132.33 293.18 132.49 291.88 131.36 291.66 130.98 291.66 130.71 291.66 130.6 291.61 130.49 291.5 130.17 291.44 130.01 291.44 129.95 291.39 129.95 291.23 129.9 291.01 129.79 290.69 129.68 290.26 129.52 290.26 129.47 289.77 129.14 289.23 128.44 288.96 127.9 288.8 127.46 288.47 126.76 288.09 126.06 288.09 126 287.55 126.06 287.17 125.9 286.42 125.36 286.09 125.08 286.04 125.08 286.04 125.03 285.99 124.92 285.93 124.65 284.58 124.54 284.52 124.54 284.47 124.54 284.15 123.89 284.09 123.46 284.09 123.3 284.09 123.25 284.2 122.16 284.96 122.11 285.01 121.95 284.96 121.95 284.9 121.89 284.85 121.89 284.85 121.62 284.85 121.25 285.01 120.22 285.01 119.89 285.01 119.62 284.8 119.57 284.69 119.3 284.74 119.14 285.07 118.76 285.44 118.33 285.66 117.84 285.71 117.78 285.82 117.51 285.77 116.86 285.66 116.65 285.44 116.49 285.34 116.49 285.12 116.43 284.85 116.16 284.69 116 284.52 115.84 284.42 115.78 284.42 115.73 284.2 115.62 284.15 115.57 283.71 115.24 283.61 114.97 283.55 114.92 283.55 114.76 283.55 114.59 283.5 114.22 283.44 113.78 283.44 113.46 283.44 113.4 283.55 113.24 283.61 113.08 283.88 112.86 283.93 112.86 284.09 112.7 284.2 112.54 284.31 112.43 284.36 112.38 284.47 112.32 284.69 112.27 284.85 112.11 284.85 112.05 285.01 111.89 285.12 111.78 285.12 111.73 285.17 111.67 285.23 111.62 285.23 111.56 285.34 111.4 285.5 111.24 285.55 111.19 285.66 110.97 285.77 110.86 285.88 110.48 285.93 110.43 286.04 109.78 286.04 109.73 286.04 109.19 286.15 109.02 286.31 108.92 286.69 108.75 286.85 108.38 286.9 108.21 286.96 108.1 287.12 107.83 287.28 107.78 287.39 107.83 287.44 107.83 287.44 107.89 287.61 107.94 287.66 107.83 287.71 107.62 287.66 107.51 287.71 107.19 287.77 106.97 287.77 106.81 287.82 106.64 287.88 106.54 287.88 106.48 287.99 106.27 288.04 106.1 288.09 106 288.25 105.51 288.31 105.35 288.42 105.02 288.42 104.81 288.53 104.7 288.63 104.53 289.01 104.32 289.23 104.05 289.23 103.99 289.23 103.99"/><path class="cls-7" d="M199,40.17h19.25l46.44,61H265v-61h14.83v74H260.59l-46.44-60.6h-.36v60.6H199Z" transform="translate(-1.16 -0.35)"/><path class="cls-7" d="M301.91,104.9a55.15,55.15,0,0,0,8.65,1.06c10.6,0,15.54-4,15.54-11.76v-54h15.54V94.73c0,11.76-8.3,20.13-26.84,20.13-4.06,0-8.83-.42-12.89-.74Z" transform="translate(-1.16 -0.35)"/><path class="cls-7" d="M422.34,50.87a63.9,63.9,0,0,0-21-3.39c-11.66,0-19.25,4.77-19.25,11,0,4.77,3.18,7.73,20.84,13.88,19.07,6.56,25.42,13,25.42,21.5,0,11.76-12.18,21-35.84,21-9.89,0-19.25-1.27-25.78-3.18V102c7.06,2.54,16.24,4.77,23.48,4.77,13.95,0,21.9-5.62,21.9-11.66,0-5.72-2.47-9-19.07-15-22.25-8-27.2-12.61-27.2-22.14,0-12.18,15.54-18.54,34.26-18.54a100.19,100.19,0,0,1,22.25,2.44Z" transform="translate(-1.16 -0.35)"/><path class="cls-7" d="M500.39,40.17l40.26,74H524.41l-9.89-19.28h-47l-9.89,19.28H442.12l41.32-73.95Zm10.07,46.62-18.9-36.87h-.35L471.78,86.79Z" transform="translate(-1.16 -0.35)"/><path class="cls-7" d="M200.38,127.76h3l6.86,16.69h.05V127.76h2.23v20.73H209.7l-7-17.05h0v17.05h-2.23Z" transform="translate(-1.16 -0.35)"/><path class="cls-7" d="M216.61,127.76h8.72v2.61h-6.49v6.06h5.91V139h-5.91v6.83h6.49v2.62h-8.72Z" transform="translate(-1.16 -0.35)"/><path class="cls-7" d="M227,127.76h2.46l3.72,17.76h0l3.33-17.76h3.16L243,145.52h0l3.73-17.76h2.36l-4.79,20.73h-2.88l-3.39-18.12h0l-3.41,18.12h-3Z" transform="translate(-1.16 -0.35)"/><path class="cls-7" d="M255.86,145.93a3.15,3.15,0,0,0,1.41.3c2,0,2.54-1.52,2.54-4V127.76H262v15.38c0,2.91-1,5.7-4.37,5.7a4.2,4.2,0,0,1-1.81-.35Z" transform="translate(-1.16 -0.35)"/><path class="cls-7" d="M266.16,127.76h8.72v2.61h-6.49v6.06h5.91V139h-5.91v6.83h6.49v2.62h-8.72Z" transform="translate(-1.16 -0.35)"/><path class="cls-7" d="M278.31,127.76h3.81c3.08,0,6,.65,6,5.61,0,2.52-1.4,4.31-3.21,4.72v.06c.69.36,1,.8,1.52,2.08l2.94,8.26h-2.54l-2.38-7.19c-.7-2-1.43-2-2.61-2h-1.34v9.21h-2.23Zm2.23,8.91h1.9a3,3,0,0,0,3.36-3.24,2.82,2.82,0,0,0-3.12-3.06h-2.14Z" transform="translate(-1.16 -0.35)"/><path class="cls-7" d="M299.13,130.87a5.5,5.5,0,0,0-2.92-.86,2.51,2.51,0,0,0-2.72,2.76c0,4,6.69,3.06,6.69,9.9,0,4.42-2.57,6.17-5.69,6.17a8.17,8.17,0,0,1-3.19-.86l.23-2.76a7.5,7.5,0,0,0,3.23,1,3.13,3.13,0,0,0,3.06-3.38c0-4.64-6.69-3.36-6.69-9.81,0-3.68,2.18-5.64,5-5.64a8.13,8.13,0,0,1,3.32.74Z" transform="translate(-1.16 -0.35)"/><path class="cls-7" d="M303.32,127.76H312v2.61h-6.49v6.06h5.91V139h-5.91v6.83H312v2.62h-8.72Z" transform="translate(-1.16 -0.35)"/><path class="cls-7" d="M320,139.81l-6.09-12h2.61l4.64,9.29,4.52-9.29h2.61l-6.06,12v8.68H320Z" transform="translate(-1.16 -0.35)"/><path class="cls-7" d="M343.73,130.87a5.48,5.48,0,0,0-2.92-.86,2.51,2.51,0,0,0-2.72,2.76c0,4,6.69,3.06,6.69,9.9,0,4.42-2.56,6.17-5.69,6.17a8.07,8.07,0,0,1-3.18-.86l.22-2.76a7.54,7.54,0,0,0,3.23,1,3.13,3.13,0,0,0,3.06-3.38c0-4.64-6.69-3.36-6.69-9.81,0-3.68,2.18-5.64,5-5.64a8.13,8.13,0,0,1,3.32.74Z" transform="translate(-1.16 -0.35)"/><path class="cls-7" d="M350.91,130.37h-4.84v-2.61H358v2.61h-4.84v18.12h-2.23Z" transform="translate(-1.16 -0.35)"/><path class="cls-7" d="M363.91,127.76h2.34l6.57,20.73h-2.43l-1.58-5.23h-7.62l-1.59,5.23h-2.34Zm1.09,2.79-3.1,10.27h6.2Z" transform="translate(-1.16 -0.35)"/><path class="cls-7" d="M374.94,127.76h8.27v2.61h-6v6.06h5.77V139h-5.77v9.45h-2.23Z" transform="translate(-1.16 -0.35)"/><path class="cls-7" d="M386.08,127.76h8.27v2.61h-6v6.06h5.78V139h-5.78v9.45h-2.23Z" transform="translate(-1.16 -0.35)"/><path class="cls-7" d="M397.36,127.76h2.23v20.73h-2.23Z" transform="translate(-1.16 -0.35)"/><path class="cls-7" d="M403.54,127.76h3l6.87,16.69h0V127.76h2.23v20.73h-2.85l-7.05-17.05h0v17.05h-2.23Z" transform="translate(-1.16 -0.35)"/><path class="cls-7" d="M431.47,131.44a5.87,5.87,0,0,0-4.28-1.43c-3.59,0-6,3.48-6,8.11,0,4.87,2.64,8.11,5.87,8.11a6.9,6.9,0,0,0,2.5-.36v-6.29H426.3v-2.44h5.5v10.78a10.89,10.89,0,0,1-4.75.92c-4.92,0-8.2-4.21-8.2-10.81,0-6.38,3.48-10.63,8.23-10.63a9.15,9.15,0,0,1,4.57,1Z" transform="translate(-1.16 -0.35)"/><path class="cls-7" d="M446.87,127.76h2.34l6.58,20.73h-2.43l-1.58-5.23h-7.63l-1.58,5.23h-2.34Zm1.09,2.79-3.1,10.27h6.2Z" transform="translate(-1.16 -0.35)"/><path class="cls-7" d="M458,127.76h2.23v18.11h6.51v2.62H458Z" transform="translate(-1.16 -0.35)"/><path class="cls-7" d="M469.16,127.76h2.23v18.11h6.51v2.62h-8.74Z" transform="translate(-1.16 -0.35)"/><path class="cls-7" d="M480.33,127.76h2.23v20.73h-2.23Z" transform="translate(-1.16 -0.35)"/><path class="cls-7" d="M491.45,127.76h2.34l6.58,20.73h-2.43l-1.58-5.23h-7.63l-1.58,5.23h-2.34Zm1.09,2.79-3.1,10.27h6.2Z" transform="translate(-1.16 -0.35)"/><path class="cls-7" d="M502.59,127.76h3l6.86,16.69h0V127.76h2.23v20.73h-2.86l-7-17.05h-.05v17.05h-2.23Z" transform="translate(-1.16 -0.35)"/><path class="cls-7" d="M529.46,131.17a5.15,5.15,0,0,0-3.21-1.16c-3.59,0-6,3.45-6,8.11,0,4.87,2.63,8.11,5.86,8.11a6.22,6.22,0,0,0,3.4-1l.13,2.88a7.46,7.46,0,0,1-3.55.74c-4.92,0-8.2-4.21-8.2-10.81,0-6.38,3.48-10.63,8.22-10.63a6.82,6.82,0,0,1,3.51.89Z" transform="translate(-1.16 -0.35)"/><path class="cls-7" d="M532.44,127.76h8.72v2.61h-6.49v6.06h5.91V139h-5.91v6.83h6.49v2.62h-8.72Z" transform="translate(-1.16 -0.35)"/></svg>