<svg id="money-bags_5557453" xmlns="http://www.w3.org/2000/svg" width="64" height="64" viewBox="0 0 64 64">
  <path id="Path_59" data-name="Path 59" d="M59.491,26.514a8.213,8.213,0,0,1-2.958-6.247,11.808,11.808,0,0,1,1.429-6.089,2.288,2.288,0,0,0,.012-2.319,2.368,2.368,0,0,0-2.049-1.193H50.741a2.368,2.368,0,0,0-2.049,1.193,2.285,2.285,0,0,0,.013,2.319,8.442,8.442,0,0,1,.389.755H37.215A7.438,7.438,0,0,0,39.467,9.6V7.467a7.467,7.467,0,1,0-14.933,0V9.6a7.439,7.439,0,0,0,2.253,5.335H14.907a8.452,8.452,0,0,1,.389-.755,2.288,2.288,0,0,0,.012-2.319,2.368,2.368,0,0,0-2.049-1.193H8.075a2.368,2.368,0,0,0-2.049,1.193,2.285,2.285,0,0,0,.013,2.319,11.821,11.821,0,0,1,1.428,6.089A8.207,8.207,0,0,1,4.51,26.513,13.277,13.277,0,0,0,0,36.267a10.667,10.667,0,0,0,21.333,0,13.276,13.276,0,0,0-4.509-9.753A8.4,8.4,0,0,1,14.3,22.842l9.235.517a1.052,1.052,0,0,1,1,1.057v8.491a10.384,10.384,0,0,1-.234,2.2l-5,23.738a4.249,4.249,0,0,0,3.255,5.047,3.826,3.826,0,0,0,.923.107,4.281,4.281,0,0,0,4.16-3.351L32,42.87c.251,1.033,1.145,4.678,4.354,17.747A4.288,4.288,0,0,0,40.523,64a3.756,3.756,0,0,0,.891-.1,4.25,4.25,0,0,0,3.289-5.05l-5-23.75a10.346,10.346,0,0,1-.233-2.2V24.416a1.055,1.055,0,0,1,1.008-1.058l9.227-.516a8.389,8.389,0,0,1-2.525,3.671,13.277,13.277,0,0,0-4.51,9.754,10.667,10.667,0,0,0,21.333,0,13.276,13.276,0,0,0-4.509-9.753ZM30.933,21.333h2.133V28.8L32,29.867,30.933,28.8ZM33.3,19.2H30.7l-.533-2.133h3.667ZM26.667,9.6V7.467a5.333,5.333,0,0,1,10.667,0V9.6a5.333,5.333,0,1,1-10.667,0ZM15.446,28.143A11.217,11.217,0,0,1,19.2,36.267a8.533,8.533,0,0,1-17.067,0,11.218,11.218,0,0,1,3.755-8.125A10.339,10.339,0,0,0,9.6,20.267a13.946,13.946,0,0,0-1.725-7.174.159.159,0,0,1,0-.176.221.221,0,0,1,.2-.116h5.184a.221.221,0,0,1,.2.116.162.162,0,0,1,0,.176,13.935,13.935,0,0,0-1.722,7.174,10.34,10.34,0,0,0,3.713,7.876Zm24.919-6.916a3.184,3.184,0,0,0-3.033,3.189v8.491a12.548,12.548,0,0,0,.279,2.641l5,23.75a2.1,2.1,0,0,1-.291,1.593,2.142,2.142,0,0,1-1.38.931,1.8,1.8,0,0,1-.421.045,2.157,2.157,0,0,1-2.091-1.726C36.925,54,34.059,42.305,33.985,42.007a2.051,2.051,0,0,0-3.97,0L25.561,60.172a2.141,2.141,0,0,1-3.885.719,2.1,2.1,0,0,1-.29-1.6l5-23.738a12.586,12.586,0,0,0,.281-2.646V24.416a3.181,3.181,0,0,0-3.023-3.189l-9.754-.546c-.007-.137-.023-.274-.023-.414a14.647,14.647,0,0,1,.335-3.2H27.968L28.8,20.4v8.4a2.118,2.118,0,0,0,.625,1.508l1.067,1.067a2.133,2.133,0,0,0,3.017,0l1.067-1.067A2.118,2.118,0,0,0,35.2,28.8V20.4l.832-3.329H49.8a14.647,14.647,0,0,1,.335,3.2c0,.14-.016.277-.023.416ZM53.333,44.8A8.543,8.543,0,0,1,44.8,36.267a11.218,11.218,0,0,1,3.755-8.125,10.339,10.339,0,0,0,3.712-7.875,13.946,13.946,0,0,0-1.725-7.174.159.159,0,0,1,0-.176.221.221,0,0,1,.2-.116h5.184a.221.221,0,0,1,.2.116.162.162,0,0,1,0,.176A13.935,13.935,0,0,0,54.4,20.267a10.34,10.34,0,0,0,3.713,7.876,11.217,11.217,0,0,1,3.754,8.124A8.543,8.543,0,0,1,53.333,44.8Z" fill="#ff7518"/>
  <path id="Path_60" data-name="Path 60" d="M50.2,32.333a1.067,1.067,0,1,1,.925-1.6,1.067,1.067,0,0,0,1.846-1.067,3.193,3.193,0,0,0-1.7-1.387v-.213a1.067,1.067,0,1,0-2.133,0v.2a3.193,3.193,0,0,0,1.067,6.2,1.067,1.067,0,1,1-.925,1.6,1.067,1.067,0,0,0-1.846,1.067,3.192,3.192,0,0,0,1.707,1.387v.213a1.067,1.067,0,0,0,2.133,0v-.2a3.193,3.193,0,0,0-1.069-6.2Z" transform="translate(3.133 1.8)" fill="#ff7518"/>
  <path id="Path_61" data-name="Path 61" d="M11.267,28.067a1.067,1.067,0,1,0-2.133,0v.2a3.193,3.193,0,0,0,1.067,6.2,1.067,1.067,0,1,1-.925,1.6,1.067,1.067,0,0,0-1.846,1.067A3.193,3.193,0,0,0,9.135,38.52v.213a1.067,1.067,0,0,0,2.133,0v-.2a3.193,3.193,0,0,0-1.069-6.2,1.067,1.067,0,1,1,.925-1.6,1.067,1.067,0,0,0,1.846-1.067,3.193,3.193,0,0,0-1.7-1.387Z" transform="translate(0.467 1.8)" fill="#ff7518"/>
</svg>
