<svg id="New-Jersey-Staffing-Alliance-NJSA-logo" xmlns="http://www.w3.org/2000/svg" width="238" height="72.903" viewBox="0 0 238 72.903">
  <circle id="Ellipse_31" data-name="Ellipse 31" cx="5.351" cy="5.351" r="5.351" transform="translate(58.112 27.163)" fill="#9f709e"/>
  <path id="Path_148" data-name="Path 148" d="M120.834,65.068a26.911,26.911,0,0,1-.912,11.283l-4.945-1.6a21.646,21.646,0,0,0,.824-4.469l-6.285-.489A15.364,15.364,0,0,0,105.88,58.6l4.8-4.09a21.887,21.887,0,0,0-3.292-3.129l3.046-4.209a26.841,26.841,0,0,1,7.3,8.436,6.461,6.461,0,0,0,2.019,8.912A6.818,6.818,0,0,0,120.834,65.068Z" transform="translate(-59.726 -26.535)" fill="#9f709e"/>
  <circle id="Ellipse_32" data-name="Ellipse 32" cx="5.351" cy="5.351" r="5.351" transform="translate(47.137 61.364)" fill="#5eb3e4"/>
  <path id="Path_149" data-name="Path 149" d="M75.164,40.092l-3.046,4.2a21.764,21.764,0,0,0-4-2.16L65.71,47.959a15.369,15.369,0,0,0-11.763,0l-2.415-5.822a21.976,21.976,0,0,0-3.993,2.16L44.48,40.1a26.815,26.815,0,0,1,10.274-4.332,6.466,6.466,0,0,0,9.106.833,6.884,6.884,0,0,0,.855-.881,26.77,26.77,0,0,1,10.45,4.372Z" transform="translate(-25.387 -20.131)" fill="#7b7b7e"/>
  <path id="Path_150" data-name="Path 150" d="M72.271,14.32a5.351,5.351,0,1,1-5.351,5.346,5.351,5.351,0,0,1,5.351-5.346Z" transform="translate(-37.937 -8.163)" fill="#7b7b7e"/>
  <path id="Path_151" data-name="Path 151" d="M91.639,129.251a26.907,26.907,0,0,1-11.019,2.618v-5.192a21.658,21.658,0,0,0,4.509-.6l-1.476-6.126a15.426,15.426,0,0,0,9.524-6.924l5.373,3.3a21.874,21.874,0,0,0,1.952-4.1h0l4.967,1.6a27.022,27.022,0,0,1-5.778,9.542,6.452,6.452,0,0,0-7.885,4.676,5.558,5.558,0,0,0-.167,1.2Z" transform="translate(-45.599 -62.92)" fill="#5eb3e4"/>
  <path id="Path_152" data-name="Path 152" d="M46.5,126.656v5.192A26.766,26.766,0,0,1,35.646,129.3a6.47,6.47,0,0,0-6.876-6.021,6.544,6.544,0,0,0-1.2.2,26.793,26.793,0,0,1-5.9-9.665l4.941-1.613a21.914,21.914,0,0,0,1.961,4.1l5.373-3.3a15.426,15.426,0,0,0,9.52,6.924l-1.472,6.126A21.5,21.5,0,0,0,46.5,126.656Z" transform="translate(-12.63 -62.903)" fill="#ff9e18"/>
  <path id="Path_153" data-name="Path 153" d="M28.66,54.514l4.8,4.09A15.426,15.426,0,0,0,29.811,69.8l-6.285.489a21.958,21.958,0,0,0,.833,4.469l-4.95,1.613a26.753,26.753,0,0,1-.93-11.111,6.461,6.461,0,0,0,3.592-8.4,6.25,6.25,0,0,0-.555-1.08,27.017,27.017,0,0,1,7.369-8.6h0l3.059,4.2a20.878,20.878,0,0,0-3.284,3.138Z" transform="translate(-10.726 -26.54)" fill="#b3cd4a"/>
  <circle id="Ellipse_33" data-name="Ellipse 33" cx="5.351" cy="5.351" r="5.351" transform="translate(10.498 71.353) rotate(-81.67)" fill="#ff9e18"/>
  <path id="Path_154" data-name="Path 154" d="M11.861,67.791A5.346,5.346,0,1,1,10.3,64.006a5.351,5.351,0,0,1,1.566,3.785Z" transform="translate(-1.16 -35.074)" fill="#b3cd4a"/>
  <path id="Path_155" data-name="Path 155" d="M285.992,45.833h-.026v-.022l.119-.119.119-.145h.048l.216-.115.476-.242-.216-.163.216-.145.048-.022.07-.048.049-.026.167-.141.19-.141.07-.075.1-.071.07-.071.1-.071.26-.238.026-.048.093-.048.048-.022.071-.048.048-.026.022-.022h.026l.238-.071.167-.026h.141l.145-.022.19.022.048.026h.643l.309-.071.309-.075.168-.071.145-.048.19-.071.238-.141.212-.216.123-.1V42.88l.141-.1.1-.022h.022l.19-.026h.551l.119-.044.07-.048.048-.075.093-.141.048-.071.071-.119.026-.145V42.02l.022-.119v-.071l-.022-.048-.026-.048-.022-.048-.022-.071-.048-.119v-.119L293,41.284v-.405l.026-.026V40.8l.022-.093.026-.048.07-.119v-.026h.022l.048-.044.022-.026.026-.022.119-.071.141-.1.1-.048.335-.119.119-.022.357-.167.07-.071.049-.048.022-.026.119-.141.049-.048.141-.309.026-.048.1-.119.093-.071.048-.026.022-.022h.026l.19-.071h.022l.194-.075.093-.044h.048l.022-.026.048-.022.075-.048.119-.119.282-.286.048-.071.026-.022.044-.075.048-.048.167-.119.167-.119.119-.044.335-.216.048-.026.234-.141.048-.022.1-.026.048-.022h.022V37.3h.071l.216.048.048-.022.141-.048.1-.022.238-.075.167-.093.26-.075.119-.022.049-.048.026-.022.044-.119.048-.071.048-.048.049-.048.022-.026.049-.022h.022l.026-.022.071-.026.119-.093.07-.071.026-.1.022-.145.048-.119v-.022l.022-.048.026-.048.048-.119.093-.071.071-.022h.048l.1.022.048.022.119.048.093.048.216.048.048.022h.071l.071-.022.145-.119.141-.119.145-.1.093-.048h.048l.022-.022h.026l.19.022h.071l.048-.022.335-.309.022-.048.048-.071.022-.119V34.8l-.022-.071L302,34.32l-.1-.093-.141-.1-.167-.071h-.022l-.048-.048-.026-.048-.022-.071-.071-.238v-.048l-.1-.141-.048-.119-.022-.048-.048-.145h-.022V33.13l-.145-.1v-.022H301l-.048-.048h-.022l-.026-.048-.022-.022h-.048l-.022-.048-.049-.022-.145-.1-.119-.071-.405-.19-.093-.1-.048-.022-.238-.123L299.6,32.1l-.1-.238-.141-.309-.071-.238-.1-.19-.1-.194-.07-.119-.286-.309-.044-.048-.075-.071-.022-.022-.1-.075-.093-.071h-.167l-.119-.048-.194-.163-.19-.194h-.022l-.145-.119-.141-.141-.07-.1v-.022l-.048-.145v-.286l-.071-.212-.075-.264-.022-.071-.022-.022-.075-.194-.141-.357-.022-.048-.048-.022-.048-.048-.216-.093-.044-.026H296.5v-.022l-.048-.026-.022-.022H296.4v-.022l-.044-.048-.167-.048h-.048l-.1.071-.309.1-.167.022h-.093l-.026-.022-.07-.026-.071-.044-.026-.026-.093-.071-.026-.048h-.022l-.022-.022-.049-.048h-.048l-.119-.048h-.026l-.022-.022-.022-.026-.026-.022-.022-.048V27.15l-.026-.026v-.048l-.044-.309-.1-.428-.07-.19v-.026l.048-.167.022-.048.022-.044h-.022V25.62l.07-.093.049-.145.022-.141-.022-.141v-.075l-.049-.309-.022-.19v-.238l.022-.194-.022-.309-.026-.093-.022-.075-.216-.167-.119-.163-.071-.075-.189-.238-.1-.093-.022-.026-.216-.071-.141-.071-.119-.026-.313-.044H293l-.022.022-.048.022-.048.026-.022.022-.022.026-.194.163h-.022l-.07.048H292.4l-.048-.022h-.093l-.026-.026-.119-.044h-.022l-.026-.026-.022-.022-.048-.026-.048-.044-.071-.1-.022-.048-.026-.071v-.1l.026-.022.048-.1.022-.022v-.1h.022l-.022-.022v-.071l-.022-.264-.1-.119v-.071l-.048-.071-.071-.1v-.071l.022-.026.075-.048h.141l.048-.044v-.1l-.026-.286-.022-.093-.022-.1-.026-.026v-.022l-.167-.119.026-.071.07-.167.119-.167.022-.022.048-.075.119-.044.026-.048.022-.026v-.022l.026-.048.044-.048.026-.093-.026-.048v-.022h-.022l-.022-.026h-.026v-.022h-.216l-.141-.048-.1-.119V19.4l-.022-.022v-.048l-.022-.071.022-.075v-.022l.049-.167.048-.119v-.048l.044-.119.048-.093.026-.026v-.022l.07-.071.071-.167h.022v-.048l.075-.119v-.119l-.048-.071h-.026v-.026l-.022-.022-.071-.071-.119-.145-.026-.048v-.141l.026-.026.093-.093.194-.1.071-.071.048-.071.022-.119.026-.119.022-.075.022-.022.026-.022v-.026l.048-.022h.141l.071.022.238.1.216.022h.119l.022-.022.049-.048.07-.119.048-.119.048-.071.1-.048h.022l.026-.026h.022l.1-.022h.022l.048-.022.167-.264.022-.022v-.071l-.022-.075.022-.044.049-.075.048-.071.119-.1.119-.19.022-.048v-.119l-.022-.022v-.026l-.048-.044-.167-.167-.048-.071-.022-.048V14.9l.022-.048.026-.071.119-.071h.309l.071.022.048.048.119-.022h.022l.1-.145.145-.19h.022v-.071l.022-.075.026-.022v-.071l-.026-.071v-.048L295,14.016l-.1-.119-.071-.145-.048-.048-.026-.044-.19-.194-.048-.044v-.048l.026-.145-.026-.19-.022-.071v-.048l-.048-.048v-.022l-.168-.145-.044-.044-.145-.119-.048-.075L294,12.372l-.119-.194-.022-.093-.119-.238-.119-.145-.022-.093-.026-.167v-.026l-.022-.044.022-.075-.022-.048v-.022L293.5,11.2l-.145.022h-.044l-.048-.048-.026-.093V11.01l.049-.093.026-.071v-.194l.022-.044v-.026l.048-.022.022-.026v-.022l.1-.071.286-.167.022-.048.19-.071.026-.026.07-.044h.022l.048-.075.048-.022.026-.022V9.917l.19-.071h.141l.1-.048.569-.335.1-.048.119-.141.1-.048.093-.022.026-.026-.026-.119V9.009l.145-.19.048-.071.048-.1V8.581l.07-.145.022-.044h.1l.167-.194.093-.071.119-.048.145-.022.26-.167.048-.071.048-.167V7.6l-.026-.022h-.093l-.071.044-.123.123-.071.022-.022.022h-.119L296.4,7.77v-.1l.216-.45.048-.075.141-.071.1-.022h.071L297,7.03l.379-.26V6.7l.048-.075.309-.141.168-.119.405-.524.07-.167.026-.071.022-.048.238-.216.141-.212.1-.194V4.839L299,4.6l.048-.071V4.482l.093-.167.167-.264V4.006l.022-.026-.044-.071-.119-.119-.026-.026.026-.141.093-.141.026-.119.093-.216.026-.026.022-.022.119-.022.048-.048.022-.048.026-.1-.026-.093V2.741l.119-.238.026-.1.022-.048V2.336l.048-.071.049-.048.093-.167.167-.216.145-.044.071-.075.119-.141.309-.216.026-.022-.026-.071-.048-.119h-.022l.022-.075.075-.044L300.836,1h.048l.022-.022h.286V.952h.071L301.29.93l.071-.1.022-.022.026-.026.022-.022V.714l.048-.093.022-.1V.5l.1-.145h.048l.022-.022h.476l.216-.026.286-.163.071-.026.1-.022.119-.1.022.022.026.026.163.1.238.141.264.167.286.167.167.093.736.454.74.454.26.167h.026l.022.022.071.048.432.26.238.167.573.335.5.309.119.071.07.048.238.145.383.238.216.167.119.071.044.022.026.026h.022l.119.093h.026l.665.454.048.022.048.026.093.071.1.048.1.048.238.141.141.1.1.071.044.022.286.167.167.1V5.1l.432.264.476.286.807.476.194.1.022.022.454.238.119.071.286.145.26.141.432.264h.022l.048.022.022.022.19.1v.022l.049.026h.026l.093.071.286.145.049.022v.022l.1.048.044.022.026.026.167.1.119.071.071.022.119.071.022.026.1.048.238.141.048.026.167.093.093.048.194.119.044.022.048.048.049.026h.022l.238.141.075.048h.022l.071.048.167.093.022.026.242.141h.022l.286.167.119.071.379.216.216.141.167.1.141.071.026.026.141.071.145.1.379.212.048.026.167.093.093.1.049.022h.264l-.075.454-.044.19-.119.5-.049.19-.07.286-.049.167-.07.309L320,12.68v.048l-.026.093-.022.026-.145.524-.044.167-.1.212-.1.216-.212.476-.1.216-.048.1-.189.617-.049.1-.048.071H318.9l-.19.357-.1.19-.071.145-.145.26-.022.048-.049.119-.07.119-.048.071-.022.048-.167.313-.071.141-.026.071-.093.476-.026.167-.022.119-.022.026v.119l-.026.048v.093l-.022.119v.071l-.026.119-.309-.022-.022.022-.026.026-.048.071V18.9l-.19.286-.1.075-.044.044-.216.167-.048.048-.022.022-.071.075-.167.19-.026.022-.022.075-.07.163-.049.167.049.167-.145.119-.309.071-.1.026-.163.022-.119.026-.194.044-.19.048h-.022l-.383-.071-.454-.071-.093.022-.048.026v.022l-.022.022-.048.048-.119.145-.1.119-.022.048-.026.26-.022.167-.022.286-.026.335-.022.19v.048l-.026.286v.022l-.07.238-.071.216-.071.093-.238-.048h-.048l-.383.264-.048.216v.071l.075.335.022.212-.119.167-.119.167-.048.048-.071.093-.022.026-.049.071-.026.022-.022.048-.049.119-.048.194.026.071v.048l.048.141.044.216v.022l.119.19.1.026.048.022.428.145.286.163.309.145v.048l.075.141v.048l-.048.048.022.048.119-.1.141-.048.026-.022.07-.048.071-.119.286-.238v.167l-.049.048.049.044.119-.119.048.048.026.048.044-.048h.026l.119.048.093-.022.026.022v-.022l.093-.048.119-.026.075-.093.022-.026.048-.022h.022l.026.022.071.026.048.044.022.026.07.048.049.022.119.071.313.1.234.1h.026l.07.022.145.071.119.071.19.167.049.026.093.071v.022h.026l.022.026.1.048h.022l.119.071.264.048.665.163h.167l.071-.238.048-.357.022-.331-.048-.119-.26-.5-.048-.022-.212-.194V25.6l.07-.048.167.026.071.071.167.119.405.811.022.93.048.26.048.405.044.405v.74l-.022.19-.022.216-.026.286-.022.238v.022l-.026.167v.238l-.022.141-.048.242-.022.19-.026.093-.044.167v.1l-.048.19-.145.67-.022.119-.026.093v.048l-.044.119v.071l-.026.026v.093l-.022.026-.048.238v.022l-.048.145v.071l-.022.071-.026.071-.022.119-.022.119-.026.048-.022.119-.026.1v.048l-.022.071-.048.216-.119.428-.093.405-.049.167-.048.286-.026.141-.071.432.048.044.022.026-.044.022-.048.19-.071.216v.071l-.026.048-.022.167-.1.524-.167.9-.093.6-.026.141-.071.383-.048.212V40l-.044.19v.071l-.048.286v.119l-.049.19-.026.264-.022.071v.1l-.048.26v.1l-.048.238v.071l-.022.19v.1L316.54,43l-.048.428v.1l-.141,1.644-.145.93v.141l-.048.1-.048.1-.163.286-.075.119-.022.044-.022.048-.238.573-.1.264-.238.52-.026.075v.022l-.022.022-.07.1-.264.454-.282.524-.048.048-.238.428-.168.286-.335.621-.167.282-.048.075-.022.071-.309.573-.216.357v.022l-.022.048-.026.022-.044.048-.1.1-.026.022-.022.026-.26.428-.335.547-.309.167h-.026l-.093.026-.335.022-.026.19-.022.119-.022.048.119.286.093.022.048.123-.048.212-.476.833-.19.313-.428.524-.194.238-.07.071-.049.048v.022h-.022l-.119.1-.048.022-.167.145-.119.093-.071.075-.07.044-.264.216v.1l-.022.093v.075l-.022.093-.075.1-.022.022-.026.026-.093.022-.119.048-.167.093h-.022l-.194.075-.093.048-.048.022-.026.022-.093.026-.071.048h-.026l-.07.022-.022.022-.075.048-.119.071-.141.1-.022.022-.1.048-.026.026-.071.048-.119.071-.07.044-.022.026-.048.022-.1.048-.022.026-.026.022-.07.048-.048.022h-.022l-.048.048-.1.071-.141.071-.428.405-.238.194-.026.093-.022.1-.026.071-.044.026-.026.044-.048.048v.026l-.022.022-.048.022-.048.026-.048.022-.07.048-.141.071-.07.026-.026.022-.048.048-.071.048-.022.022-.048.048-.189.167-.026.048-.212.212-.119.145H304.6V61.3l-.093.145-.286.405-.1.119-.238.26v.048l-.022.071-.1.286-.022.022-.383.454v.022l-.048.026-.022.1-.383.643v.022l-.07.119-.167.286-.049.119-.07.1-.048.071-.044.119-.1.167-.022.093.022.075.216.19-.026.141-.141.145-.026.022-.022.022-.216.264-.331.357-.216.357-.19.286-.524.859-.167.643v.022l-.141.238-.216.1h-.026l-.119.071-.044.048-.194.141-.071.075-.119.093-.048.048-.405.405-.071.1-.335.405v-.026l-.093-.048L298.809,70l-.26.048h-.022l-.1.048-.071.048-.383.19-.071.022-.119.026-.1.022-.022.022h-.286l-.595-.071h-.1l-.07-.071-.119-.19.167-.789.022-.022v-.026l.1-.428v-.071l.048-.216.022-.071v-.026l.026-.119.071-.163v-.048l.07-.19V67.9l.071-.167.026-.022.044-.119.048-.119.075-.119v-.026l.044-.071v-.022l.026-.026.163-.309.048-.119.145-.286.238-.454.071-.141.048-.071.07-.145.071-.19.048-.19.071-.216v-.048l.145-.833-.026-.428v-.026l-.022-.022-.071-.1h-.026l-.286-.335-.07-.022-.141-.071-.476-.167-.551-.19h-.044l-.075-.026-.141-.022-.1-.026h-.022l-.238.026h-.238l-.286-.026-.335-.044-.07-.026.022-.141.1-.1v-.048l-.049-.119v-.048l-.1-.044-.115-.1-.145-.022-.07.071-.071.048-.1-.048H294.5l-.524.141-.238-.071-.1-.022H293.5l-.026.022-.044.022-.1.075-.19.309-.1.19-.212.309-.048-.022-.216-.212-.216-.216-.19-.216.026-.216.022-.212-.145-.524-.141-.238-.643-.573h-.141l-.194-.1-.07-.048-.26-.119-.119-.071h-.026l-.049-.119.026-.071v-.1l-.026-.048-.163-.4V59.61h-.048l-.19-.048-.119-.044-.1-.026-.216.145h-.022l-.071.19-.075.1-.071-.075-.309-.286-.216-.26-.141-.383-.1-.26-.022-.167v-.022l-.048-.048-.1-.145-.19-.093-.286.022-.071.048-.071.071-.07.071-.573-.5-.1-.167v-.167l-.022-.048-.048-.141-.026-.071v-.026h-.022l-.071-.022-.1-.048-.141-.048-.19-.071v-.022l-.216-.145-.238-.309-.119-.238-.07-.194-.145-.309-.168-.309v-.026l-.238.026-.167-.071-.331-.238-.145-.123h-.022v-.022l-.022-.048-.026-.119-.6-.048h-.048l-.141-.286-.026-.19v-.093l.049-.48.335-.022.022-.071h-.022l-.026-.026h-.022V53.44l.071-.454v-.264l-.093-.022-.048-.119.022-.071.145-.167.163-.19.1-.216.022-.026.049-.119-.022-.286-.048-.093-.1-.071h-.044l-.1-.026-.119-.119-.07-.071-.075-.071-.044-.026v-.022l-.1-.048-.022-.022-.194-.145-.044-.119-.026-.022V50.5l-.022-.163-.026-.194V49.98l.048-.071.026-.071.119-.1h.022l.07-.071.049-.071.048-.048.022-.022.048-.026.1-.022.07-.071v-.026l.071-.071.048-.048v-.022l.022-.026.026-.022v-.026l.048-.071.07-.071.022-.022.048-.1.048-.048.049-.167.022-.022.048-.286v-.26l.048-.075.071-.044.167-.075.071-.163.022-.075.026-.048.071-.119.071-.022.048.022h.022v.026l.075.022.022-.048.022-.093-.022-.048.022-.141.026-.1v-.071L285.37,47l.026-.044V46.93l.048-.093.022-.075.022-.044.071-.216.026-.071.048-.145v-.093l.048-.048.044-.075.167-.093.1-.119v-.026Z" transform="translate(-158.516)" fill="#a2d45e"/>
  <path id="Path_156" data-name="Path 156" d="M199,40.17h8.484l20.468,26.885h.137V40.17h6.536V72.785h-8.48L205.677,46.076h-.159V72.785H199Z" transform="translate(-111.804 -22.62)" fill="#231f20"/>
  <path id="Path_157" data-name="Path 157" d="M301.91,68.716a24.307,24.307,0,0,0,3.812.467c4.672,0,6.849-1.763,6.849-5.183V40.2h6.849V64.234c0,5.183-3.658,8.872-11.829,8.872-1.789,0-3.892-.185-5.681-.326Z" transform="translate(-169.357 -22.636)" fill="#231f20"/>
  <path id="Path_158" data-name="Path 158" d="M390.742,44.472a28.163,28.163,0,0,0-9.256-1.494c-5.139,0-8.484,2.1-8.484,4.848,0,2.1,1.4,3.407,9.185,6.117,8.4,2.891,11.2,5.73,11.2,9.476,0,5.183-5.368,9.256-15.8,9.256a42.817,42.817,0,0,1-11.362-1.4V67.007a33.606,33.606,0,0,0,10.349,2.1c6.148,0,9.652-2.477,9.652-5.139,0-2.521-1.089-3.967-8.4-6.611C368.022,53.833,365.84,51.8,365.84,47.6c0-5.368,6.849-8.171,15.1-8.171a44.158,44.158,0,0,1,9.806,1.075Z" transform="translate(-205.111 -22.206)" fill="#231f20"/>
  <path id="Path_159" data-name="Path 159" d="M467.8,40.17l17.744,32.615h-7.158l-4.359-8.5H453.315l-4.359,8.5H442.12l18.211-32.593Zm4.438,20.547-8.33-16.25h-.154l-8.564,16.25Z" transform="translate(-247.771 -22.62)" fill="#231f20"/>
  <path id="Path_160" data-name="Path 160" d="M200.38,127.76H201.7l3.023,7.356h.022V127.76h.983V136.9h-1.243l-3.085-7.515h0V136.9h-.983Z" transform="translate(-112.576 -71.605)" fill="#231f20"/>
  <path id="Path_161" data-name="Path 161" d="M216.61,127.76h3.843v1.15h-2.86v2.671h2.6v1.133h-2.6v3.01h2.86v1.155H216.61Z" transform="translate(-121.652 -71.605)" fill="#231f20"/>
  <path id="Path_162" data-name="Path 162" d="M227,127.76h1.084l1.64,7.828h0l1.468-7.828h1.393l1.468,7.828h0l1.644-7.828h1.04l-2.111,9.137h-1.269l-1.494-7.986h0l-1.5,7.986h-1.322Z" transform="translate(-127.463 -71.605)" fill="#231f20"/>
  <path id="Path_163" data-name="Path 163" d="M255.838,135.768a1.388,1.388,0,0,0,.621.132c.881,0,1.119-.67,1.119-1.763V127.76h.965v6.779c0,1.283-.441,2.512-1.926,2.512a1.852,1.852,0,0,1-.8-.154Z" transform="translate(-143.581 -71.605)" fill="#231f20"/>
  <path id="Path_164" data-name="Path 164" d="M266.16,127.76H270v1.15h-2.86v2.671h2.6v1.133h-2.6v3.01H270v1.155H266.16Z" transform="translate(-149.364 -71.605)" fill="#231f20"/>
  <path id="Path_165" data-name="Path 165" d="M278.288,127.76h1.679c1.357,0,2.644.286,2.644,2.473a1.993,1.993,0,0,1-1.415,2.08v.026c.3.159.441.353.67.917l1.3,3.641h-1.119l-1.049-3.169c-.309-.881-.63-.881-1.15-.881h-.591v4.059h-.983Zm.983,3.927h.837a1.322,1.322,0,0,0,1.481-1.428,1.243,1.243,0,0,0-1.375-1.349h-.943Z" transform="translate(-156.136 -71.605)" fill="#231f20"/>
  <path id="Path_166" data-name="Path 166" d="M294.656,128.924a2.424,2.424,0,0,0-1.287-.379,1.106,1.106,0,0,0-1.2,1.216c0,1.763,2.949,1.349,2.949,4.363a2.381,2.381,0,0,1-2.508,2.719,3.6,3.6,0,0,1-1.406-.379l.1-1.216a3.306,3.306,0,0,0,1.424.441,1.379,1.379,0,0,0,1.349-1.49c0-2.045-2.949-1.481-2.949-4.324a2.2,2.2,0,0,1,2.2-2.486,3.583,3.583,0,0,1,1.463.326Z" transform="translate(-163.328 -71.398)" fill="#231f20"/>
  <path id="Path_167" data-name="Path 167" d="M303.3,127.76h3.826v1.15h-2.86v2.671h2.6v1.133h-2.6v3.01h2.86v1.155H303.28Z" transform="translate(-170.123 -71.605)" fill="#231f20"/>
  <path id="Path_168" data-name="Path 168" d="M316.594,133.1l-2.684-5.289h1.15l2.045,4.094,1.992-4.094h1.15l-2.671,5.289v3.826h-.983Z" transform="translate(-176.068 -71.633)" fill="#231f20"/>
  <path id="Path_169" data-name="Path 169" d="M339.256,128.924a2.415,2.415,0,0,0-1.287-.379,1.106,1.106,0,0,0-1.2,1.216c0,1.763,2.949,1.349,2.949,4.363,0,1.948-1.128,2.719-2.508,2.719a3.557,3.557,0,0,1-1.4-.379l.1-1.216a3.323,3.323,0,0,0,1.424.441,1.379,1.379,0,0,0,1.349-1.49c0-2.045-2.949-1.481-2.949-4.324a2.2,2.2,0,0,1,2.2-2.486,3.583,3.583,0,0,1,1.463.326Z" transform="translate(-188.271 -71.398)" fill="#231f20"/>
  <path id="Path_170" data-name="Path 170" d="M348.2,128.91H346.07v-1.15h5.258v1.15h-2.133V136.9h-.983Z" transform="translate(-194.054 -71.605)" fill="#231f20"/>
  <path id="Path_171" data-name="Path 171" d="M360.191,127.76h1.031l2.9,9.137h-1.071l-.7-2.305h-3.358l-.7,2.305H357.26Zm.48,1.23-1.366,4.526h2.733Z" transform="translate(-200.312 -71.605)" fill="#231f20"/>
  <path id="Path_172" data-name="Path 172" d="M374.94,127.76h3.645v1.15H375.94v2.671h2.543v1.133H375.94v4.165h-.983Z" transform="translate(-210.2 -71.605)" fill="#231f20"/>
  <path id="Path_173" data-name="Path 173" d="M386.08,127.76h3.645v1.15H387.08v2.671h2.547v1.133H387.08v4.165H386.1Z" transform="translate(-216.43 -71.605)" fill="#231f20"/>
  <path id="Path_174" data-name="Path 174" d="M397.36,127.76h.983V136.9h-.983Z" transform="translate(-222.738 -71.605)" fill="#231f20"/>
  <path id="Path_175" data-name="Path 175" d="M403.523,127.76h1.322l3.028,7.356h0V127.76h.983V136.9H407.6l-3.107-7.515h0V136.9h-.983Z" transform="translate(-226.178 -71.605)" fill="#231f20"/>
  <path id="Path_176" data-name="Path 176" d="M424.412,129.176a2.587,2.587,0,0,0-1.886-.63c-1.582,0-2.644,1.534-2.644,3.574,0,2.146,1.164,3.574,2.587,3.574a3.041,3.041,0,0,0,1.1-.159v-2.772h-1.437v-1.075h2.424v4.751a4.8,4.8,0,0,1-2.094.405c-2.168,0-3.614-1.856-3.614-4.764,0-2.812,1.534-4.685,3.627-4.685a4.033,4.033,0,0,1,2.014.441Z" transform="translate(-234.757 -71.399)" fill="#231f20"/>
  <path id="Path_177" data-name="Path 177" d="M443.156,127.76h1.031l2.9,9.137h-1.071l-.7-2.305h-3.363l-.7,2.305H440.23Zm.48,1.23-1.366,4.526H445Z" transform="translate(-246.714 -71.605)" fill="#231f20"/>
  <path id="Path_178" data-name="Path 178" d="M458,127.76h.983v7.982h2.869V136.9H458Z" transform="translate(-256.652 -71.605)" fill="#231f20"/>
  <path id="Path_179" data-name="Path 179" d="M469.16,127.76h.983v7.982h2.869V136.9H469.16Z" transform="translate(-262.893 -71.605)" fill="#231f20"/>
  <path id="Path_180" data-name="Path 180" d="M480.33,127.76h.983V136.9h-.983Z" transform="translate(-269.14 -71.605)" fill="#231f20"/>
  <path id="Path_181" data-name="Path 181" d="M487.736,127.76h1.031l2.9,9.137H490.6l-.7-2.305h-3.363l-.7,2.305H484.81Zm.48,1.23-1.366,4.526h2.733Z" transform="translate(-271.646 -71.605)" fill="#231f20"/>
  <path id="Path_182" data-name="Path 182" d="M502.562,127.76h1.322l3.023,7.356h0V127.76h.983V136.9h-1.26l-3.085-7.515h-.022V136.9h-.983Z" transform="translate(-281.561 -71.605)" fill="#231f20"/>
  <path id="Path_183" data-name="Path 183" d="M522.989,129.066a2.27,2.27,0,0,0-1.415-.511c-1.582,0-2.644,1.521-2.644,3.574,0,2.146,1.159,3.574,2.583,3.574a2.742,2.742,0,0,0,1.5-.441l.057,1.269a3.288,3.288,0,0,1-1.565.326c-2.168,0-3.614-1.855-3.614-4.764,0-2.812,1.534-4.685,3.623-4.685a3.006,3.006,0,0,1,1.547.392Z" transform="translate(-290.146 -71.409)" fill="#231f20"/>
  <path id="Path_184" data-name="Path 184" d="M532.44,127.76h3.843v1.15h-2.86v2.671h2.6v1.133h-2.6v3.01h2.86v1.155H532.44Z" transform="translate(-298.283 -71.605)" fill="#231f20"/>
</svg>
