<svg xmlns="http://www.w3.org/2000/svg" width="68.6" height="62.083" viewBox="0 0 68.6 62.083">
  <g id="Speed" transform="translate(-1 -3.9)">
    <g id="Group_45" data-name="Group 45" transform="translate(1 3.9)">
      <g id="Group_44" data-name="Group 44">
        <path id="Path_56" data-name="Path 56" d="M44.689,37.892a1.1,1.1,0,1,0,0-2.209H41.154A4.04,4.04,0,0,0,37.287,32.7a4.087,4.087,0,0,0,0,8.175,3.918,3.918,0,0,0,3.866-2.983Zm-7.512.773a1.878,1.878,0,1,1,1.878-1.878A1.862,1.862,0,0,1,37.177,38.665Z" transform="translate(2.37 -0.885)" fill="#ff7518"/>
        <path id="Path_57" data-name="Path 57" d="M38.716,18.1A20.216,20.216,0,1,0,58.931,38.316,20.225,20.225,0,0,0,38.716,18.1Zm0,2.209a17.589,17.589,0,0,1,12.7,5.3l-3.756,3.314a13.1,13.1,0,0,0-17.785.11l-3.866-3.424a17.971,17.971,0,0,1,12.7-5.3ZM20.709,38.316a17.98,17.98,0,0,1,3.866-11.157l3.866,3.424A12.681,12.681,0,0,0,31.314,48.81l-2.541,4.419A17.745,17.745,0,0,1,20.709,38.316ZM38.716,56.322a17.574,17.574,0,0,1-7.954-1.878l3.093-5.413a1.174,1.174,0,0,0,.11-.884c-.11-.331-.221-.552-.552-.663A10.636,10.636,0,0,1,28,38.316a10.528,10.528,0,0,1,2.762-7.07,11.065,11.065,0,0,1,8.064-3.535,9.993,9.993,0,0,1,7.954,3.535,10.528,10.528,0,0,1,2.762,7.07,10.636,10.636,0,0,1-5.413,9.169,1.624,1.624,0,0,0-.552.663,1.247,1.247,0,0,0,.11.884l3.093,5.3a17.414,17.414,0,0,1-8.064,1.988Zm10.053-3.093L46.227,48.81a12.888,12.888,0,0,0,5.523-10.494A12.38,12.38,0,0,0,49.1,30.583l3.756-3.314a17.668,17.668,0,0,1,3.866,11.047A17.938,17.938,0,0,1,48.768,53.229Z" transform="translate(0.832 -2.414)" fill="#ff7518"/>
        <path id="Path_58" data-name="Path 58" d="M63.745,22.679a3.467,3.467,0,0,0,4.861,0,3.179,3.179,0,0,0,.994-2.32,3.009,3.009,0,0,0-.994-2.32L61.647,11.08a3.334,3.334,0,0,0-4.75,0A3.179,3.179,0,0,0,55.9,13.4a3.009,3.009,0,0,0,.994,2.32l.331.331-2.1,1.988a26.62,26.62,0,0,0-10.163-4.087V11.191h1.326a3.645,3.645,0,0,0,0-7.291H35.024a3.645,3.645,0,1,0,0,7.291h1.215v2.762a26.26,26.26,0,0,0-5.744,1.657H12.489a1.1,1.1,0,0,0,0,2.209H26.3A26.025,26.025,0,0,0,17.57,27.1H6.744a1.1,1.1,0,1,0,0,2.209h9.832a26.578,26.578,0,0,0-2.209,9.39H2.1a1.1,1.1,0,0,0,0,2.209H14.367a25.893,25.893,0,0,0,2.1,9.279H6.744a1.1,1.1,0,1,0,0,2.209H17.57a26.35,26.35,0,0,0,8.727,9.39H12.489a1.1,1.1,0,1,0,0,2.209H30.495a25.507,25.507,0,0,0,10.053,1.988A26.26,26.26,0,0,0,66.839,39.8a25.818,25.818,0,0,0-5.3-15.686L63.3,22.348ZM58.333,12.516a1.193,1.193,0,0,1,.773-.331,1,1,0,0,1,.773.331l6.959,6.959a1.193,1.193,0,0,1,.331.773,1,1,0,0,1-.331.773,1.2,1.2,0,0,1-1.657,0l-1.1-1.1-5.855-5.855a1.193,1.193,0,0,1-.331-.773,1.4,1.4,0,0,1,.442-.773ZM35.024,8.981a1.436,1.436,0,0,1,0-2.872H46.292a1.436,1.436,0,0,1,0,2.872Zm7.843,2.209v2.43a14.8,14.8,0,0,0-2.209-.11,12.685,12.685,0,0,0-2.1.11v-2.43ZM64.629,39.8A24.082,24.082,0,1,1,40.547,15.83,24.044,24.044,0,0,1,64.629,39.8ZM60.21,22.348a20.511,20.511,0,0,0-3.2-2.983L58.774,17.6l3.093,3.093Z" transform="translate(-1 -3.9)" fill="#ff7518"/>
      </g>
    </g>
  </g>
</svg>
