<svg id="thief_14015443" xmlns="http://www.w3.org/2000/svg" width="64" height="64" viewBox="0 0 64 64">
  <path id="Path_54" data-name="Path 54" d="M32,0A32,32,0,1,0,64,32,32.036,32.036,0,0,0,32,0Zm1.5,60.962V49.513l3.374,3.635a1.5,1.5,0,0,0,2.2-2.041L33.1,44.671c0-.005-.01-.006-.015-.011l-.054-.054c-.005-.005-.006-.011-.011-.015s-.019-.01-.027-.017a1.46,1.46,0,0,0-.358-.238c-.011-.005-.02-.012-.031-.017a.654.654,0,0,0-.074-.027c-.018-.007-.036-.011-.055-.018a1.507,1.507,0,0,0-.388-.075c-.017,0-.033-.005-.05-.005s-.025,0-.039,0-.025,0-.039,0-.033,0-.05.005a1.5,1.5,0,0,0-.387.075c-.019.007-.038.011-.056.018s-.049.018-.073.027-.02.012-.031.017a1.539,1.539,0,0,0-.358.238c-.008.007-.019.009-.027.017s-.006.01-.01.015-.037.035-.055.054-.01.006-.014.011l-5.973,6.436a1.5,1.5,0,0,0,2.2,2.041L30.5,49.513V60.962A29.041,29.041,0,0,1,3.039,33.5H14.487l-3.633,3.373a1.5,1.5,0,0,0,2.041,2.2L19.328,33.1s.006-.01.01-.014.034-.032.05-.049.013-.011.019-.017.008-.017.015-.024a1.508,1.508,0,0,0,.24-.36c0-.011.012-.021.017-.031s.018-.048.027-.073.011-.038.018-.057a1.477,1.477,0,0,0,.075-.384c0-.018,0-.035,0-.053s0-.025,0-.038,0-.024,0-.038,0-.035,0-.053a1.477,1.477,0,0,0-.075-.384.54.54,0,0,0-.018-.057c-.009-.024-.017-.049-.027-.073s-.012-.02-.017-.03a1.514,1.514,0,0,0-.24-.361c-.007-.007-.008-.017-.015-.024s-.009,0-.013-.009c-.019-.02-.037-.038-.057-.057,0,0,0-.009-.009-.013l-6.433-5.974a1.5,1.5,0,0,0-2.041,2.2L14.487,30.5H3.039A29.041,29.041,0,0,1,30.5,3.038V14.486l-3.374-3.633a1.5,1.5,0,0,0-2.2,2.041L30.9,19.326l.019.016c.016.017.033.033.05.049s0,.01.01.014.02.01.028.018c.024.021.049.042.074.061s.045.041.07.058a1.458,1.458,0,0,0,.215.12c.016.007.03.018.046.025s.023.007.035.012.03.009.046.014a1.418,1.418,0,0,0,.207.063c.045.009.091.009.136.014a1.451,1.451,0,0,0,.163.017,1.475,1.475,0,0,0,.163-.017,1.254,1.254,0,0,0,.136-.014,1.6,1.6,0,0,0,.207-.063c.015,0,.03-.008.045-.014l.035-.012c.017-.007.032-.019.049-.026a1.521,1.521,0,0,0,.213-.118c.025-.017.047-.04.071-.059s.051-.04.075-.062c.007-.007.018-.009.026-.016s.005-.009.009-.013.035-.032.051-.049l.019-.016L39.072,12.9a1.5,1.5,0,1,0-2.2-2.042L33.5,14.487V3.038A29.043,29.043,0,0,1,60.962,30.5H49.512l3.634-3.375a1.5,1.5,0,0,0-2.041-2.2L44.672,30.9s-.006.009-.01.013c-.019.018-.037.036-.055.055-.005,0-.011.006-.015.01s-.01.019-.017.027a1.46,1.46,0,0,0-.238.358c-.005.01-.012.02-.017.03s-.018.048-.026.072-.013.04-.02.06a1.541,1.541,0,0,0-.074.381c0,.019-.005.036-.005.054s0,.024,0,.037,0,.024,0,.037,0,.036.005.055a1.541,1.541,0,0,0,.074.381c.007.021.012.04.02.06l.026.072c.005.011.012.021.018.032a1.509,1.509,0,0,0,.237.357c.007.008.009.02.017.027s.015.012.021.019l.048.046c.005.005.006.011.011.015L51.1,39.071a1.5,1.5,0,1,0,2.042-2.2L49.513,33.5H60.962A29.043,29.043,0,0,1,33.5,60.962Z" fill="#ff7518"/>
  <path id="Path_55" data-name="Path 55" d="M36.338,32.285a6.021,6.021,0,1,0-8.676,0,8.857,8.857,0,0,0-4.516,7.71v.4a1.5,1.5,0,0,0,1.5,1.5H39.353a1.5,1.5,0,0,0,1.5-1.5v-.4A8.854,8.854,0,0,0,36.338,32.285ZM32,34.142A5.861,5.861,0,0,1,37.747,38.9H26.253A5.86,5.86,0,0,1,32,34.142Zm-3.021-6.021A3.021,3.021,0,1,1,32,31.142,3.024,3.024,0,0,1,28.979,28.121Z" fill="#ff7518"/>
</svg>
