<svg xmlns="http://www.w3.org/2000/svg" width="70.6" height="70.6" viewBox="0 0 70.6 70.6">
  <g id="trust_14913416" transform="translate(-9 -9)">
    <g id="Group_43" data-name="Group 43" transform="translate(78.6 35.997)">
      <rect id="Rectangle_90" data-name="Rectangle 90" fill="none" stroke="#ff7518" stroke-linecap="round" stroke-linejoin="round" stroke-width="2"/>
    </g>
    <path id="Path_39" data-name="Path 39" d="M401.639,115.648v-5.8l-16.261,9.308" transform="translate(-323.039 -85.925)" fill="none" stroke="#ff7518" stroke-linecap="round" stroke-linejoin="round" stroke-width="2"/>
    <path id="Path_40" data-name="Path 40" d="M424.919,259.073a19.041,19.041,0,0,0,4.944-8.552h0l5.8-3.27v-5.8" transform="translate(-357.066 -199.179)" fill="none" stroke="#ff7518" stroke-linecap="round" stroke-linejoin="round" stroke-width="2"/>
    <path id="Path_41" data-name="Path 41" d="M312.746,356.792l7.394,7.394a3.486,3.486,0,0,1,0,4.93h0a3.486,3.486,0,0,1-4.93,0l-7.394-7.394" transform="translate(-256.291 -298.438)" fill="none" stroke="#ff7518" stroke-linecap="round" stroke-linejoin="round" stroke-width="2"/>
    <path id="Path_42" data-name="Path 42" d="M295.646,392.147l6.409,6.409a3.486,3.486,0,0,1,0,4.93h0a3.486,3.486,0,0,1-4.93,0l-3.451-3.112" transform="translate(-244.121 -328.864)" fill="none" stroke="#ff7518" stroke-linecap="round" stroke-linejoin="round" stroke-width="2"/>
    <path id="Path_43" data-name="Path 43" d="M90.084,332.813h0a3.486,3.486,0,0,0-4.93,0l-3.944,3.944a3.486,3.486,0,0,0,0,4.93h0a3.486,3.486,0,0,0,4.93,0l3.944-3.944A3.486,3.486,0,0,0,90.084,332.813Z" transform="translate(-60.403 -276.924)" fill="none" stroke="#ff7518" stroke-linecap="round" stroke-linejoin="round" stroke-width="2"/>
    <path id="Path_44" data-name="Path 44" d="M119.354,368.169h0a3.486,3.486,0,0,0-4.93,0l-4.93,4.93a3.486,3.486,0,0,0,0,4.93h0a3.486,3.486,0,0,0,4.93,0l4.93-4.93A3.486,3.486,0,0,0,119.354,368.169Z" transform="translate(-84.743 -307.35)" fill="none" stroke="#ff7518" stroke-linecap="round" stroke-linejoin="round" stroke-width="2"/>
    <path id="Path_45" data-name="Path 45" d="M160.795,403.524h0a3.486,3.486,0,0,0-4.93,0l-3.944,3.944a3.486,3.486,0,0,0,0,4.93h0a3.486,3.486,0,0,0,4.93,0l3.944-3.944A3.486,3.486,0,0,0,160.795,403.524Z" transform="translate(-121.255 -337.776)" fill="none" stroke="#ff7518" stroke-linecap="round" stroke-linejoin="round" stroke-width="2"/>
    <path id="Path_46" data-name="Path 46" d="M207.826,442.415h0a3.486,3.486,0,0,0-4.93,0l-1.479,1.479a3.486,3.486,0,0,0,0,4.93h0a3.486,3.486,0,0,0,4.93,0l1.479-1.479A3.485,3.485,0,0,0,207.826,442.415Z" transform="translate(-163.85 -371.244)" fill="none" stroke="#ff7518" stroke-linecap="round" stroke-linejoin="round" stroke-width="2"/>
    <path id="Path_47" data-name="Path 47" d="M255.849,455.392l1.823,1.823a3.486,3.486,0,0,0,4.93,0h0a3.486,3.486,0,0,0,0-4.93l-1.479-1.14" transform="translate(-211.57 -379.637)" fill="none" stroke="#ff7518" stroke-linecap="round" stroke-linejoin="round" stroke-width="2"/>
    <path id="Path_48" data-name="Path 48" d="M197.787,10H185.128l-.128.383a5.2,5.2,0,0,1-4,3.469h0v9.96a12.659,12.659,0,0,0,8.283,11.878l2.175.8,2.175-.8a12.659,12.659,0,0,0,8.283-11.878v-9.96h0a5.2,5.2,0,0,1-4-3.469Z" transform="translate(-147.157 0)" fill="none" stroke="#ff7518" stroke-linecap="round" stroke-linejoin="round" stroke-width="2"/>
    <path id="Path_49" data-name="Path 49" d="M37.311,118.444l-.213.012-10.838.7L10,109.847V134l5.8,3.27a19.041,19.041,0,0,0,4.944,8.552" transform="translate(0 -85.925)" fill="none" stroke="#ff7518" stroke-linecap="round" stroke-linejoin="round" stroke-width="2"/>
    <path id="Path_50" data-name="Path 50" d="M317.173,172.213l-10.838-.7-.213-.012" transform="translate(-254.833 -138.984)" fill="none" stroke="#ff7518" stroke-linecap="round" stroke-linejoin="round" stroke-width="2"/>
    <path id="Path_51" data-name="Path 51" d="M168.674,192.949l-9.163,5.29a3.834,3.834,0,0,0-1.4,5.238h0a3.834,3.834,0,0,0,5.238,1.4l9.962-5.752a9.058,9.058,0,0,0,12.38,3.317" transform="translate(-127.014 -157.44)" fill="none" stroke="#ff7518" stroke-linecap="round" stroke-linejoin="round" stroke-width="2"/>
    <path id="Path_52" data-name="Path 52" d="M326.884,269.793,340.493,283.4a3.486,3.486,0,0,1-4.93,4.93l-6.409-6.409" transform="translate(-272.701 -223.57)" fill="none" stroke="#ff7518" stroke-linecap="round" stroke-linejoin="round" stroke-width="2"/>
    <path id="Path_53" data-name="Path 53" d="M234.328,82.574l-5.916,5.915-2.465-2.465" transform="translate(-185.838 -62.455)" fill="none" stroke="#ff7518" stroke-linecap="round" stroke-linejoin="round" stroke-width="2"/>
  </g>
</svg>
